<svg width="216" height="220" viewBox="0 0 216 220" fill="none" xmlns="http://www.w3.org/2000/svg">
<path fill-rule="evenodd" clip-rule="evenodd" d="M74.5501 54.4098C72.5901 53.1298 65.9401 52.4598 64.2201 57.3798C62.8001 61.4298 65.6801 66.9298 66.9201 70.0698C68.0201 72.8498 71.3301 79.3098 63.8301 81.7998C68.7901 83.3298 76.3001 82.5398 75.6301 73.2298C74.9601 63.9198 74.5501 54.4098 74.5501 54.4098Z" fill="#2C3E47"/>
<path fill-rule="evenodd" clip-rule="evenodd" d="M85.6504 79.2699C85.7804 79.6499 83.2104 84.6499 87.8304 86.9599C92.4504 89.2699 85.0504 100.81 85.0504 100.81C85.0504 100.81 68.2204 87.7299 72.3204 85.6799C76.4204 83.6299 76.4204 82.5999 76.1704 75.1699C75.9104 67.7299 85.6504 79.2699 85.6504 79.2699Z" fill="#E5C7A4"/>
<path fill-rule="evenodd" clip-rule="evenodd" d="M91.4995 56.6L93.0395 56.54C94.7395 58.69 96.8595 64.09 94.5495 66.99C92.2395 69.89 89.2695 60.11 89.2695 60.11L91.4995 56.6Z" fill="#3A4D57"/>
<path fill-rule="evenodd" clip-rule="evenodd" d="M80.51 172.02H122.95L121.38 155.98L100.02 149.41L100.16 141.78L96.7 102.74L70.06 96.8301L60.54 108.19V159.95L75.41 163.65L80.51 172.02Z" fill="#BCB5A5"/>
<path fill-rule="evenodd" clip-rule="evenodd" d="M60.5101 107.57C60.9401 115.62 64.2301 134.52 61.8301 159.71C75.9101 159.84 83.2601 157.23 83.2601 169.62C82.4901 172.75 77.0601 173.94 76.6101 166.05C69.9201 166.05 60.5101 166.05 60.5101 166.05C58.0701 165.69 58.3001 161.59 59.3901 154.04C60.4801 146.49 59.4601 123.78 57.3601 115.2C55.2601 106.62 60.5101 107.57 60.5101 107.57Z" fill="#D7D0BD"/>
<path fill-rule="evenodd" clip-rule="evenodd" d="M91.7402 58.2998C94.0302 62.1098 96.6502 73.3998 88.3102 82.5698C85.7102 84.3998 79.9502 83.0698 76.2202 76.7598C75.6002 75.7098 73.8402 75.1698 73.3502 73.8298C73.3502 73.8298 71.8102 71.5898 71.6002 70.3998C70.2602 62.8798 74.3602 56.7798 74.3602 56.7798L91.7402 58.2998Z" fill="#EFD7BA"/>
<path fill-rule="evenodd" clip-rule="evenodd" d="M100.66 104.31L106.96 122.71L119.56 123.9C119.56 123.9 124.33 129.36 113.26 129.1C102.19 128.84 100.48 129.86 98.7798 124.75C96.5698 116.4 93.0898 106.01 93.0898 106.01L100.66 104.31Z" fill="#EFD7BA"/>
<path fill-rule="evenodd" clip-rule="evenodd" d="M93.0501 56.5401C93.1201 59.7701 88.3201 66.3701 77.9601 68.2501C76.4701 69.0101 76.4201 70.5601 76.4201 70.5601C76.3301 67.9701 74.4401 68.0501 73.7801 68.8701C71.9801 71.1001 74.2501 74.6101 75.4201 74.7701C75.7001 75.8901 76.2301 76.7601 76.2301 76.7601C73.6801 75.8101 68.9701 72.1401 69.8401 62.9301C70.7101 53.7201 80.1101 50.6901 87.2001 53.1101C90.5301 54.2601 93.0501 56.5401 93.0501 56.5401Z" fill="#3A4D58"/>
<path fill-rule="evenodd" clip-rule="evenodd" d="M86.79 86.3101C90.68 87.5301 93.87 88.8801 95.97 90.0401C98.92 91.6701 103.38 106.62 103.38 106.62C103.38 106.62 98.52 110.06 94.85 109.49C89.49 108.65 86.79 86.3101 86.79 86.3101Z" fill="#FABD68"/>
<path fill-rule="evenodd" clip-rule="evenodd" d="M129.56 218.34H132.73L130.86 166.16H127.68L129.56 218.34Z" fill="#BCB5A5"/>
<path fill-rule="evenodd" clip-rule="evenodd" d="M95.9699 101.88C97.1399 107.24 97.1399 109.61 94.0299 114.35C93.7799 116.72 93.4299 139.66 95.9699 141.78C79.4399 141.66 66.5599 141.16 66.5599 141.16C68.0899 133.55 67.4199 112.23 65.5899 106.49C64.8499 107.99 63.3599 110.98 63.3599 110.98C61.9299 110.12 57.5899 106.6 54.1299 106.49C58.2499 95.7698 59.8999 88.5298 66.5699 86.7398C70.2299 85.7498 73.9699 84.7598 73.9699 84.7598C74.2099 88.2898 79.1799 94.4798 83.2599 96.0898C87.7699 94.0898 86.7899 86.3098 86.7899 86.3098L93.6599 93.0298L95.9699 101.88Z" fill="#FABD68"/>
<path fill-rule="evenodd" clip-rule="evenodd" d="M62.9696 110.74L59.1296 121.46L75.6796 125.05C75.6796 125.05 82.7096 122.11 86.7796 123.39C90.8496 124.66 94.0196 129.23 91.0896 129.1C88.1596 128.97 57.9896 129.1 54.7996 129.1C51.7396 127.19 48.8196 125.92 51.6196 116.88C54.4196 107.84 55.2496 106.65 55.2496 106.65C55.2496 106.65 56.8996 106.93 58.9896 108.18C61.0896 109.41 62.9696 110.74 62.9696 110.74Z" fill="#EFD7BA"/>
<path fill-rule="evenodd" clip-rule="evenodd" d="M111.07 218.34H107.89L109.77 166.16H112.94L111.07 218.34Z" fill="#BCB5A5"/>
<path fill-rule="evenodd" clip-rule="evenodd" d="M101.06 126.11H139.56L144.37 91.2298C144.62 89.4098 143.21 87.7798 141.37 87.7798H111.52C108.56 87.7798 106.05 89.9598 105.65 92.8998L101.06 126.11Z" fill="#D6CFBC"/>
<rect x="139.565" y="129.098" width="38.5" height="2.99" transform="rotate(-180 139.565 129.098)" fill="#BCB5A5"/>
<path fill-rule="evenodd" clip-rule="evenodd" d="M81.6102 129.1H101.07V126.11H81.6102C80.7902 126.11 80.1202 126.78 80.1202 127.6C80.1102 128.43 80.7802 129.1 81.6102 129.1Z" fill="#D6CFBC"/>
<path fill-rule="evenodd" clip-rule="evenodd" d="M109.78 197.99C109.85 203.12 113.27 210.38 113.27 210.38L106.85 213.69L103.01 209.77L104.16 207.31L102.7 201.55L109.78 197.99Z" fill="#EFD7BA"/>
<path fill-rule="evenodd" clip-rule="evenodd" d="M113.28 209.2C110.74 209.11 108.42 211.08 108.42 211.08C106.21 210.8 103.02 210.67 104.15 207.3C103.39 206.19 102.36 207.79 101.79 209.95C101.22 212.12 100.38 216.82 100.38 216.82H124.58C123.73 215.03 121.47 214.01 118.55 213.68C115.44 212.03 113.28 209.2 113.28 209.2Z" fill="#966A4E"/>
<path fill-rule="evenodd" clip-rule="evenodd" d="M139.32 196.41C140.37 202.19 144.33 210.34 144.33 210.34L137.75 213.69L136.12 211.89L134.08 209.64L135.05 207.3L132.74 200.45L139.32 196.41Z" fill="#EFD7BA"/>
<path fill-rule="evenodd" clip-rule="evenodd" d="M144.17 209.2C141.63 209.11 139.31 211.08 139.31 211.08C137.1 210.8 133.91 210.67 135.04 207.3C134.28 206.19 133.25 207.79 132.68 209.95C132.11 212.12 131.27 216.82 131.27 216.82H155.47C154.62 215.03 152.36 214.01 149.44 213.68C146.34 212.03 144.17 209.2 144.17 209.2Z" fill="#966A4E"/>
<path fill-rule="evenodd" clip-rule="evenodd" d="M89.7402 140.89C89.7402 140.89 117.08 140.21 123.95 144.43C128.58 146.74 132.96 170.14 139.89 197.82C137.92 197.41 133.94 199.79 132.09 200.72C117.3 172.76 117.01 165.51 116.64 159.54C111.19 159.38 100.36 159.31 100.36 159.31L89.7402 140.89Z" fill="#3A4C56"/>
<path fill-rule="evenodd" clip-rule="evenodd" d="M15.8695 135.89H168.47C170.34 135.89 171.86 134.37 171.86 132.5C171.86 130.63 170.34 129.11 168.47 129.11H15.8695C13.9995 129.11 12.4795 130.63 12.4795 132.5C12.4695 134.37 13.9895 135.89 15.8695 135.89Z" fill="#CEAD87"/>
<path fill-rule="evenodd" clip-rule="evenodd" d="M66.5505 139.79C66.5505 139.79 103.9 139.41 107.04 145.26C110.18 151.11 109.27 159.97 109.67 169.24C110.29 183.73 110.8 200.32 110.8 200.32C110.8 200.32 105.21 199.85 102.08 202.02C94.4005 177.94 96.7005 166.05 96.7005 159.55C82.7305 159.19 68.4005 161.48 65.9605 155.31C63.1005 148.06 66.5505 139.79 66.5505 139.79Z" fill="#4F5962"/>
<path fill-rule="evenodd" clip-rule="evenodd" d="M59.5502 135.89H212.15C214.02 135.89 215.54 134.37 215.54 132.5C215.54 130.63 214.02 129.11 212.15 129.11H59.5502C57.6802 129.11 56.1602 130.63 56.1602 132.5C56.1602 134.37 57.6802 135.89 59.5502 135.89Z" fill="#936F53"/>
<path fill-rule="evenodd" clip-rule="evenodd" d="M22.7899 220H18.3799L24.9999 135.89H29.4099L22.7899 220Z" fill="#70513A"/>
<path fill-rule="evenodd" clip-rule="evenodd" d="M45.6795 220H41.2695L47.8795 135.89H52.2995L45.6795 220Z" fill="#70513A"/>
<path fill-rule="evenodd" clip-rule="evenodd" d="M207.21 220H211.62L205 135.89H200.59L207.21 220Z" fill="#70513A"/>
<path fill-rule="evenodd" clip-rule="evenodd" d="M184.32 220H188.73L182.12 135.89H177.7L184.32 220Z" fill="#70513A"/>
<path fill-rule="evenodd" clip-rule="evenodd" d="M58.6799 168.67C58.7399 166.93 60.1699 165.55 61.9099 165.55H75.9999C78.1699 165.55 79.9599 167.27 80.0399 169.45L81.7599 218.35H78.5799L76.7999 170.37C76.7799 169.75 76.2699 169.26 75.6499 169.26H63.1999C62.4099 169.26 61.7599 169.89 61.7299 170.68L60.0999 218.36H56.9199L58.6799 168.67Z" fill="#BDB4A5"/>
<path fill-rule="evenodd" clip-rule="evenodd" d="M20.88 85.72C32.2736 85.72 41.51 76.4836 41.51 65.09C41.51 53.6963 32.2736 44.46 20.88 44.46C9.48636 44.46 0.25 53.6963 0.25 65.09C0.25 76.4836 9.48636 85.72 20.88 85.72Z" fill="#CEAD89"/>
<path fill-rule="evenodd" clip-rule="evenodd" d="M73.3103 29.56C81.473 29.56 88.0903 22.9428 88.0903 14.78C88.0903 6.61723 81.473 0 73.3103 0C65.1475 0 58.5303 6.61723 58.5303 14.78C58.5303 22.9428 65.1475 29.56 73.3103 29.56Z" fill="#BDB4A5"/>
<path fill-rule="evenodd" clip-rule="evenodd" d="M179.88 93.1201C188.042 93.1201 194.66 86.5028 194.66 78.3401C194.66 70.1773 188.042 63.5601 179.88 63.5601C171.717 63.5601 165.1 70.1773 165.1 78.3401C165.1 86.5028 171.717 93.1201 179.88 93.1201Z" fill="#D8D0BD"/>
<path fill-rule="evenodd" clip-rule="evenodd" d="M131.59 56.0102C142.111 56.0102 150.64 47.4812 150.64 36.9602C150.64 26.4391 142.111 17.9102 131.59 17.9102C121.069 17.9102 112.54 26.4391 112.54 36.9602C112.54 47.4812 121.069 56.0102 131.59 56.0102Z" fill="#CEAD89"/>
<path fill-rule="evenodd" clip-rule="evenodd" d="M80.1202 73.24C80.2902 74.12 81.1002 74.73 82.0602 74.73H85.4302C86.3402 74.73 87.1002 74.15 87.2502 73.36L87.3802 72.22C87.4502 71.83 87.3402 71.42 87.0702 71.09C86.7502 70.7 86.2602 70.48 85.7202 70.48H81.5102C81.0402 70.48 80.6002 70.68 80.3202 71.02C80.0802 71.31 79.9802 71.67 80.0502 72.03L80.1202 73.24ZM80.7002 71.34C80.8802 71.11 81.1902 70.98 81.5102 70.98H85.7302C86.1102 70.98 86.4802 71.14 86.7002 71.41C86.8802 71.63 86.9502 71.89 86.9002 72.15L86.7702 73.29C86.6702 73.83 86.1102 74.24 85.4402 74.24H82.0602C81.3302 74.24 80.7202 73.8 80.6102 73.19L80.5402 71.98C80.4902 71.73 80.5502 71.52 80.7002 71.34Z" fill="#3A4D58"/>
<path fill-rule="evenodd" clip-rule="evenodd" d="M88.8203 73.2602V73.2802C88.9803 74.1202 89.7903 74.7302 90.7603 74.7402H93.4903C94.4003 74.7402 95.1603 74.1602 95.3103 73.3702L95.5203 72.2402C95.5903 71.8402 95.4803 71.4302 95.2103 71.1002C94.8903 70.7102 94.4003 70.4902 93.8603 70.4902H90.3103C89.8403 70.4902 89.4003 70.6902 89.1203 71.0302C88.8803 71.3202 88.7803 71.6702 88.8403 72.0202L88.8203 73.2602ZM89.4903 71.3402C89.6703 71.1102 89.9803 70.9802 90.3003 70.9802V70.9702H93.8403C94.2203 70.9702 94.5903 71.1302 94.8103 71.4002C94.9903 71.6202 95.0603 71.8802 95.0103 72.1402L94.8003 73.2702C94.7003 73.8302 94.1403 74.2402 93.4703 74.2402H90.7403C90.0303 74.2402 89.4303 73.8102 89.3003 73.2102L89.3203 71.9702V71.9502C89.2803 71.7302 89.3403 71.5202 89.4903 71.3402Z" fill="#3A4D58"/>
<path fill-rule="evenodd" clip-rule="evenodd" d="M88.9302 72.3299L89.2302 71.9399C89.1902 71.9099 88.8202 71.6399 88.4502 71.6099C87.3302 71.5199 87.0002 71.9199 86.9502 71.9999L87.3502 72.2899C87.3502 72.2899 87.5802 72.0399 88.4102 72.0999C88.6002 72.1099 88.8502 72.2699 88.9302 72.3299Z" fill="#3A4D58"/>
<path fill-rule="evenodd" clip-rule="evenodd" d="M76.4404 69.3701L80.1704 70.8301H80.7404L80.1504 71.7801L76.3604 69.6901L76.4404 69.3701Z" fill="#3A4D58"/>
<path fill-rule="evenodd" clip-rule="evenodd" d="M93.9399 69.8003L95.5199 71.0903V72.0803L95.2599 71.8803L95.2499 71.3703L93.9199 70.0003L93.9399 69.8003Z" fill="#3A4D58"/>
<path fill-rule="evenodd" clip-rule="evenodd" d="M161.659 118.91H165.069V122.48H162.749C162.789 121.29 162.309 119.95 161.659 118.91Z" fill="#D4DFE5"/>
<path fill-rule="evenodd" clip-rule="evenodd" d="M151.83 118.91H161.66C162.31 119.95 162.79 121.29 162.75 122.48H151.83V118.91H151.83Z" fill="white"/>
<rect x="151.83" y="119.58" width="14" height="0.19" fill="#C4E9FB"/>
<rect x="151.83" y="120.26" width="14" height="0.19" fill="#C4E9FB"/>
<rect x="151.83" y="120.95" width="14" height="0.19" fill="#C4E9FB"/>
<rect x="151.83" y="121.629" width="14" height="0.19" fill="#C4E9FB"/>
<path fill-rule="evenodd" clip-rule="evenodd" d="M164.65 120.52C164.65 118.69 163.56 117.87 162.46 117.87H165.81C166.99 119.33 166.4 121.72 165.44 123.53H162.46C163.56 123.53 164.65 122.77 164.65 120.52Z" fill="#AF8168"/>
<path fill-rule="evenodd" clip-rule="evenodd" d="M165.81 117.87H176.07C177.17 117.87 178.07 118.77 178.07 119.87V121.53C178.07 122.63 177.17 123.53 176.07 123.53H165.43C166.4 121.72 166.99 119.32 165.81 117.87Z" fill="#293763"/>
<path fill-rule="evenodd" clip-rule="evenodd" d="M151.14 123.01C151.14 122.72 151.37 122.49 151.66 122.49H164.55C164.84 122.49 165.07 122.72 165.07 123.01C165.07 123.3 164.84 123.53 164.55 123.53H151.66C151.38 123.53 151.14 123.29 151.14 123.01Z" fill="#AF8168"/>
<path fill-rule="evenodd" clip-rule="evenodd" d="M151.14 118.39C151.14 118.1 151.37 117.87 151.66 117.87H164.55C164.84 117.87 165.07 118.1 165.07 118.39C165.07 118.68 164.84 118.91 164.55 118.91H151.66C151.38 118.91 151.14 118.68 151.14 118.39Z" fill="#AF8168"/>
<path fill-rule="evenodd" clip-rule="evenodd" d="M159.05 124.57H162.46V128.14H160.14C160.18 126.95 159.7 125.61 159.05 124.57Z" fill="#D4DFE5"/>
<path fill-rule="evenodd" clip-rule="evenodd" d="M149.22 124.57H159.05C159.7 125.61 160.18 126.95 160.14 128.14H149.22V124.57H149.22Z" fill="white"/>
<rect x="149.22" y="125.24" width="14" height="0.19" fill="#C4E9FB"/>
<rect x="149.22" y="125.92" width="14" height="0.19" fill="#C4E9FB"/>
<rect x="149.22" y="126.6" width="14" height="0.19" fill="#C4E9FB"/>
<rect x="149.22" y="127.28" width="14" height="0.19" fill="#C4E9FB"/>
<path fill-rule="evenodd" clip-rule="evenodd" d="M162.04 126.18C162.04 124.35 160.95 123.53 159.85 123.53H163.2C164.38 124.99 163.79 127.38 162.83 129.19H159.85C160.95 129.19 162.04 128.43 162.04 126.18Z" fill="#9EBD9F"/>
<path fill-rule="evenodd" clip-rule="evenodd" d="M163.2 123.53H173.46C174.56 123.53 175.46 124.43 175.46 125.53V127.19C175.46 128.29 174.56 129.19 173.46 129.19H162.82C163.79 127.38 164.38 124.98 163.2 123.53Z" fill="#86A586"/>
<path fill-rule="evenodd" clip-rule="evenodd" d="M148.54 128.66C148.54 128.37 148.77 128.14 149.06 128.14H161.95C162.24 128.14 162.47 128.37 162.47 128.66C162.47 128.95 162.24 129.18 161.95 129.18H149.06C148.77 129.19 148.54 128.95 148.54 128.66Z" fill="#9EBD9F"/>
<path fill-rule="evenodd" clip-rule="evenodd" d="M148.54 124.05C148.54 123.76 148.77 123.53 149.06 123.53H161.95C162.24 123.53 162.47 123.76 162.47 124.05C162.47 124.34 162.24 124.57 161.95 124.57H149.06C148.77 124.57 148.54 124.34 148.54 124.05Z" fill="#9EBD9F"/>
<path fill-rule="evenodd" clip-rule="evenodd" d="M175.64 118.91H179.05V122.48H176.73C176.77 121.29 176.29 119.95 175.64 118.91Z" fill="#D4DFE5"/>
<path fill-rule="evenodd" clip-rule="evenodd" d="M165.811 118.91H175.641C176.291 119.95 176.771 121.29 176.731 122.48H165.811V118.91H165.811Z" fill="white"/>
<rect x="165.811" y="119.58" width="14" height="0.19" fill="#C4E9FB"/>
<rect x="165.811" y="120.26" width="14" height="0.19" fill="#C4E9FB"/>
<rect x="165.811" y="120.95" width="14" height="0.19" fill="#C4E9FB"/>
<rect x="165.811" y="121.629" width="14" height="0.19" fill="#C4E9FB"/>
<path fill-rule="evenodd" clip-rule="evenodd" d="M178.62 120.52C178.62 118.69 177.53 117.87 176.43 117.87H179.78C180.96 119.33 180.37 121.72 179.41 123.53H176.43C177.54 123.53 178.62 122.77 178.62 120.52Z" fill="#9EBD9F"/>
<path fill-rule="evenodd" clip-rule="evenodd" d="M179.79 117.87H190.05C191.15 117.87 192.05 118.77 192.05 119.87V121.53C192.05 122.63 191.15 123.53 190.05 123.53H179.41C180.37 121.72 180.97 119.32 179.79 117.87Z" fill="#86A586"/>
<path fill-rule="evenodd" clip-rule="evenodd" d="M165.12 123.01C165.12 122.72 165.35 122.49 165.64 122.49H178.53C178.82 122.49 179.05 122.72 179.05 123.01C179.05 123.3 178.82 123.53 178.53 123.53H165.64C165.35 123.53 165.12 123.29 165.12 123.01Z" fill="#9EBD9F"/>
<path fill-rule="evenodd" clip-rule="evenodd" d="M165.12 118.39C165.12 118.1 165.35 117.87 165.64 117.87H178.53C178.82 117.87 179.05 118.1 179.05 118.39C179.05 118.68 178.82 118.91 178.53 118.91H165.64C165.35 118.91 165.12 118.68 165.12 118.39Z" fill="#9EBD9F"/>
<path fill-rule="evenodd" clip-rule="evenodd" d="M178.279 124.57H181.689V128.14H179.369C179.409 126.95 178.929 125.61 178.279 124.57Z" fill="#D4DFE5"/>
<path fill-rule="evenodd" clip-rule="evenodd" d="M168.45 124.57H178.28C178.93 125.61 179.41 126.95 179.37 128.14H168.45V124.57H168.45Z" fill="white"/>
<rect x="168.45" y="125.24" width="14" height="0.19" fill="#C4E9FB"/>
<rect x="168.45" y="125.92" width="14" height="0.19" fill="#C4E9FB"/>
<rect x="168.45" y="126.6" width="14" height="0.19" fill="#C4E9FB"/>
<rect x="168.45" y="127.28" width="14" height="0.19" fill="#C4E9FB"/>
<path fill-rule="evenodd" clip-rule="evenodd" d="M181.27 126.18C181.27 124.35 180.18 123.53 179.08 123.53H182.43C183.61 124.99 183.02 127.38 182.06 129.19H179.08C180.18 129.19 181.27 128.43 181.27 126.18Z" fill="#D1CB84"/>
<path fill-rule="evenodd" clip-rule="evenodd" d="M182.43 123.53H192.69C193.79 123.53 194.69 124.43 194.69 125.53V127.19C194.69 128.29 193.79 129.19 192.69 129.19H182.05C183.02 127.38 183.61 124.98 182.43 123.53Z" fill="#BFBA68"/>
<path fill-rule="evenodd" clip-rule="evenodd" d="M167.76 128.66C167.76 128.37 167.99 128.14 168.28 128.14H181.17C181.46 128.14 181.69 128.37 181.69 128.66C181.69 128.95 181.46 129.18 181.17 129.18H168.28C168 129.19 167.76 128.95 167.76 128.66Z" fill="#D1CB84"/>
<path fill-rule="evenodd" clip-rule="evenodd" d="M167.76 124.05C167.76 123.76 167.99 123.53 168.28 123.53H181.17C181.46 123.53 181.69 123.76 181.69 124.05C181.69 124.34 181.46 124.57 181.17 124.57H168.28C168 124.57 167.76 124.34 167.76 124.05Z" fill="#D1CB84"/>
<path fill-rule="evenodd" clip-rule="evenodd" d="M168.14 107.6H171.55V111.17H169.23C169.27 109.97 168.79 108.63 168.14 107.6Z" fill="#D4DFE5"/>
<path fill-rule="evenodd" clip-rule="evenodd" d="M158.311 107.6H168.141C168.791 108.64 169.271 109.98 169.231 111.17H158.311V107.6H158.311Z" fill="white"/>
<rect x="158.311" y="108.26" width="14" height="0.19" fill="#C4E9FB"/>
<rect x="158.311" y="108.95" width="14" height="0.19" fill="#C4E9FB"/>
<rect x="158.311" y="109.63" width="14" height="0.19" fill="#C4E9FB"/>
<rect x="158.311" y="110.31" width="14" height="0.19" fill="#C4E9FB"/>
<path fill-rule="evenodd" clip-rule="evenodd" d="M171.13 109.2C171.13 107.37 170.04 106.55 168.94 106.55H172.29C173.47 108.01 172.88 110.4 171.92 112.21H168.94C170.04 112.21 171.13 111.45 171.13 109.2Z" fill="#F46765"/>
<path fill-rule="evenodd" clip-rule="evenodd" d="M172.29 106.55H182.55C183.65 106.55 184.55 107.45 184.55 108.55V110.21C184.55 111.32 183.65 112.21 182.55 112.21H171.91C172.87 110.4 173.47 108.01 172.29 106.55Z" fill="#D85656"/>
<path fill-rule="evenodd" clip-rule="evenodd" d="M157.62 111.69C157.62 111.4 157.85 111.17 158.14 111.17H171.03C171.32 111.17 171.55 111.4 171.55 111.69C171.55 111.98 171.32 112.21 171.03 112.21H158.14C157.85 112.21 157.62 111.98 157.62 111.69Z" fill="#F46765"/>
<path fill-rule="evenodd" clip-rule="evenodd" d="M157.62 107.07C157.62 106.78 157.85 106.55 158.14 106.55H171.03C171.32 106.55 171.55 106.78 171.55 107.07C171.55 107.36 171.32 107.59 171.03 107.59H158.14C157.85 107.6 157.62 107.36 157.62 107.07Z" fill="#F46765"/>
<path fill-rule="evenodd" clip-rule="evenodd" d="M170.779 113.25H174.189V116.82H171.869C171.909 115.63 171.429 114.29 170.779 113.25Z" fill="#D4DFE5"/>
<path fill-rule="evenodd" clip-rule="evenodd" d="M160.95 113.25H170.78C171.43 114.29 171.91 115.63 171.87 116.82H160.95V113.25H160.95Z" fill="white"/>
<rect x="160.95" y="113.92" width="14" height="0.19" fill="#C4E9FB"/>
<rect x="160.95" y="114.6" width="14" height="0.19" fill="#C4E9FB"/>
<rect x="160.95" y="115.29" width="14" height="0.19" fill="#C4E9FB"/>
<rect x="160.95" y="115.97" width="14" height="0.19" fill="#C4E9FB"/>
<path fill-rule="evenodd" clip-rule="evenodd" d="M173.77 114.86C173.77 113.03 172.68 112.21 171.58 112.21H174.93C176.11 113.67 175.52 116.06 174.56 117.87H171.58C172.68 117.87 173.77 117.11 173.77 114.86Z" fill="#AF8168"/>
<path fill-rule="evenodd" clip-rule="evenodd" d="M174.93 112.21H185.19C186.29 112.21 187.19 113.11 187.19 114.21V115.87C187.19 116.97 186.29 117.87 185.19 117.87H174.55C175.52 116.06 176.11 113.67 174.93 112.21Z" fill="#966A4D"/>
<path fill-rule="evenodd" clip-rule="evenodd" d="M160.26 117.35C160.26 117.06 160.49 116.83 160.78 116.83H173.67C173.96 116.83 174.19 117.06 174.19 117.35C174.19 117.64 173.96 117.87 173.67 117.87H160.78C160.5 117.87 160.26 117.63 160.26 117.35Z" fill="#AF8168"/>
<path fill-rule="evenodd" clip-rule="evenodd" d="M160.26 112.73C160.26 112.44 160.49 112.21 160.78 112.21H173.67C173.96 112.21 174.19 112.44 174.19 112.73C174.19 113.02 173.96 113.25 173.67 113.25H160.78C160.5 113.25 160.26 113.02 160.26 112.73Z" fill="#AF8168"/>
<path fill-rule="evenodd" clip-rule="evenodd" d="M128.469 28.7399C127.539 28.7399 126.789 27.9799 126.789 27.0599C126.789 26.1299 127.549 25.3799 128.469 25.3799C129.399 25.3799 130.149 26.1399 130.149 27.0599C130.159 27.9899 129.399 28.7399 128.469 28.7399Z" fill="#4D1B02"/>
<path fill-rule="evenodd" clip-rule="evenodd" d="M130.129 27.9996C129.199 27.9996 128.449 27.2396 128.449 26.3196C128.449 25.3896 129.209 24.6396 130.129 24.6396C131.059 24.6396 131.809 25.3996 131.809 26.3196C131.809 27.2396 131.049 27.9996 130.129 27.9996Z" fill="#4D1B02"/>
<path fill-rule="evenodd" clip-rule="evenodd" d="M132.65 27.7399C131.72 27.7399 130.97 26.9799 130.97 26.0599C130.97 25.1299 131.73 24.3799 132.65 24.3799C133.58 24.3799 134.33 25.1399 134.33 26.0599C134.34 26.9799 133.58 27.7399 132.65 27.7399Z" fill="#4D1B02"/>
<path fill-rule="evenodd" clip-rule="evenodd" d="M134.919 28.57C133.989 28.57 133.239 27.81 133.239 26.89C133.239 25.96 133.999 25.21 134.919 25.21C135.849 25.21 136.599 25.97 136.599 26.89C136.599 27.81 135.849 28.57 134.919 28.57Z" fill="#4D1B02"/>
<path fill-rule="evenodd" clip-rule="evenodd" d="M136.23 30.4401C135.3 30.4401 134.55 29.6801 134.55 28.7601C134.55 27.8301 135.31 27.0801 136.23 27.0801C137.16 27.0801 137.91 27.8401 137.91 28.7601C137.91 29.6801 137.15 30.4401 136.23 30.4401Z" fill="#4D1B02"/>
<path fill-rule="evenodd" clip-rule="evenodd" d="M127.03 30.4801C126.1 30.4801 125.35 29.7201 125.35 28.8001C125.35 27.8701 126.11 27.1201 127.03 27.1201C127.95 27.1201 128.71 27.8801 128.71 28.8001C128.72 29.7301 127.96 30.4801 127.03 30.4801Z" fill="#4D1B02"/>
<path fill-rule="evenodd" clip-rule="evenodd" d="M126.95 32.84C126.02 32.84 125.27 32.08 125.27 31.16C125.27 30.23 126.03 29.48 126.95 29.48C127.88 29.48 128.63 30.24 128.63 31.16C128.63 32.08 127.88 32.84 126.95 32.84Z" fill="#4D1B02"/>
<path fill-rule="evenodd" clip-rule="evenodd" d="M128.169 35.6701C127.239 35.6701 126.489 34.9101 126.489 33.9901C126.489 33.0601 127.249 32.3101 128.169 32.3101C129.099 32.3101 129.849 33.0701 129.849 33.9901C129.849 34.9101 129.089 35.6701 128.169 35.6701Z" fill="#4D1B02"/>
<path fill-rule="evenodd" clip-rule="evenodd" d="M136.36 32.57C135.43 32.57 134.68 31.81 134.68 30.89C134.68 29.96 135.44 29.21 136.36 29.21C137.29 29.21 138.04 29.97 138.04 30.89C138.04 31.82 137.28 32.57 136.36 32.57Z" fill="#4D1B02"/>
<path fill-rule="evenodd" clip-rule="evenodd" d="M135.14 35.8898C134.21 35.8898 133.46 35.1298 133.46 34.2098C133.46 33.2898 134.22 32.5298 135.14 32.5298C136.07 32.5298 136.82 33.2898 136.82 34.2098C136.82 35.1298 136.06 35.8898 135.14 35.8898Z" fill="#4D1B02"/>
<path fill-rule="evenodd" clip-rule="evenodd" d="M127.19 34.4401C126.26 34.4401 125.51 33.6801 125.51 32.7601C125.51 31.8401 126.27 31.0801 127.19 31.0801C128.12 31.0801 128.87 31.8401 128.87 32.7601C128.87 33.6801 128.12 34.4401 127.19 34.4401Z" fill="#4D1B02"/>
<path fill-rule="evenodd" clip-rule="evenodd" d="M136.11 34.3297C135.18 34.3297 134.43 33.5697 134.43 32.6497C134.43 31.7297 135.19 30.9697 136.11 30.9697C137.04 30.9697 137.79 31.7297 137.79 32.6497C137.79 33.5697 137.04 34.3297 136.11 34.3297Z" fill="#4D1B02"/>
<path fill-rule="evenodd" clip-rule="evenodd" d="M133.56 38.7397C137.91 40.6497 139.22 41.6597 139.73 42.1197C140.53 42.8197 140.96 45.4497 141.43 47.6697H131.59H121.75C122.22 45.4397 122.66 42.8197 123.45 42.1197C123.97 41.6597 125.22 40.6697 129.57 38.7697L133.56 38.7397Z" fill="#E6A875"/>
<path fill-rule="evenodd" clip-rule="evenodd" d="M129.48 34.9397V39.7597C130.64 41.1797 132.54 41.1297 133.71 39.7597V34.9397C133.71 32.3397 129.48 32.3397 129.48 34.9397Z" fill="#E6A875"/>
<path fill-rule="evenodd" clip-rule="evenodd" d="M129.48 34.9397V38.1697C130.28 38.7497 131.05 39.0797 131.59 39.0797C132.13 39.0797 132.9 38.7497 133.7 38.1697V34.9397C133.71 32.3397 129.48 32.3397 129.48 34.9397Z" fill="#B88053"/>
<path fill-rule="evenodd" clip-rule="evenodd" d="M131.59 26.2798C138.68 26.2798 136.13 34.8498 135.67 35.5298C135.16 36.2798 132.74 38.2798 131.59 38.2798C130.44 38.2798 128.02 36.2898 127.51 35.5298C127.05 34.8498 124.5 26.2798 131.59 26.2798Z" fill="#E6A875"/>
<path fill-rule="evenodd" clip-rule="evenodd" d="M136.99 31.83C136.62 31.71 136.14 32.13 135.93 32.77C135.72 33.41 135.85 34.03 136.22 34.16C136.59 34.28 137.07 33.86 137.28 33.22C137.5 32.57 137.37 31.95 136.99 31.83Z" fill="#E6A875"/>
<path fill-rule="evenodd" clip-rule="evenodd" d="M126.12 31.83C126.49 31.71 126.97 32.13 127.18 32.77C127.39 33.41 127.26 34.03 126.89 34.16C126.52 34.28 126.04 33.86 125.83 33.22C125.61 32.57 125.74 31.95 126.12 31.83Z" fill="#E6A875"/>
<path fill-rule="evenodd" clip-rule="evenodd" d="M132.17 29.1798C131.24 29.1798 130.49 28.4198 130.49 27.4998C130.49 26.5698 131.25 25.8198 132.17 25.8198C133.1 25.8198 133.85 26.5798 133.85 27.4998C133.86 28.4198 133.1 29.1798 132.17 29.1798Z" fill="#4D1B02"/>
<path fill-rule="evenodd" clip-rule="evenodd" d="M129.87 29.09C128.94 29.09 128.19 28.33 128.19 27.41C128.19 26.48 128.95 25.73 129.87 25.73C130.8 25.73 131.55 26.49 131.55 27.41C131.55 28.33 130.79 29.09 129.87 29.09Z" fill="#4D1B02"/>
<path fill-rule="evenodd" clip-rule="evenodd" d="M133.87 29.6998C132.94 29.6998 132.19 28.9398 132.19 28.0198C132.19 27.0998 132.95 26.3398 133.87 26.3398C134.8 26.3398 135.55 27.0998 135.55 28.0198C135.55 28.9398 134.8 29.6998 133.87 29.6998Z" fill="#4D1B02"/>
<path fill-rule="evenodd" clip-rule="evenodd" d="M135.13 30.2799C135.92 30.2799 136.56 29.6397 136.56 28.8499C136.56 28.0602 135.92 27.4199 135.13 27.4199C134.34 27.4199 133.7 28.0602 133.7 28.8499C133.7 29.6397 134.34 30.2799 135.13 30.2799Z" fill="#4D1B02"/>
<path fill-rule="evenodd" clip-rule="evenodd" d="M128.52 30.1398C127.59 30.1398 126.84 29.3798 126.84 28.4598C126.84 27.5398 127.6 26.7798 128.52 26.7798C129.44 26.7798 130.2 27.5398 130.2 28.4598C130.2 29.3798 129.44 30.1398 128.52 30.1398Z" fill="#4D1B02"/>
<path fill-rule="evenodd" clip-rule="evenodd" d="M127.15 31.2799C126.5 31.2799 125.96 30.7499 125.96 30.0899C125.96 29.4399 126.49 28.8999 127.15 28.8999C127.8 28.8999 128.34 29.4299 128.34 30.0899C128.34 30.7399 127.8 31.2799 127.15 31.2799Z" fill="#4D1B02"/>
<path fill-rule="evenodd" clip-rule="evenodd" d="M135.89 31.51C135.26 31.51 134.74 30.99 134.74 30.36C134.74 29.73 135.26 29.21 135.89 29.21C136.52 29.21 137.04 29.73 137.04 30.36C137.04 30.99 136.52 31.51 135.89 31.51Z" fill="#4D1B02"/>
<path fill-rule="evenodd" clip-rule="evenodd" d="M136.13 32.2901C136.538 32.2901 136.87 31.9587 136.87 31.5501C136.87 31.1414 136.538 30.8101 136.13 30.8101C135.721 30.8101 135.39 31.1414 135.39 31.5501C135.39 31.9587 135.721 32.2901 136.13 32.2901Z" fill="#4D1B02"/>
<path fill-rule="evenodd" clip-rule="evenodd" d="M126.94 32.3799C126.53 32.3799 126.2 32.0499 126.2 31.6399C126.2 31.2299 126.53 30.8999 126.94 30.8999C127.35 30.8999 127.68 31.2299 127.68 31.6399C127.68 32.0499 127.34 32.3799 126.94 32.3799Z" fill="#4D1B02"/>
<path fill-rule="evenodd" clip-rule="evenodd" d="M136.04 32.9399C135.75 32.9399 135.52 32.7099 135.52 32.4199C135.52 32.1299 135.75 31.8999 136.04 31.8999C136.33 31.8999 136.56 32.1299 136.56 32.4199C136.56 32.7099 136.33 32.9399 136.04 32.9399Z" fill="#4D1B02"/>
<path fill-rule="evenodd" clip-rule="evenodd" d="M127.03 32.8999C126.74 32.8999 126.51 32.6699 126.51 32.3799C126.51 32.0899 126.74 31.8599 127.03 31.8599C127.32 31.8599 127.55 32.0899 127.55 32.3799C127.54 32.6699 127.31 32.8999 127.03 32.8999Z" fill="#4D1B02"/>
<path fill-rule="evenodd" clip-rule="evenodd" d="M133.71 38.8101C137.95 40.6801 139.23 41.6801 139.74 42.1301C140.54 42.8301 140.97 45.4601 141.44 47.6801H131.6H121.76C122.23 45.4501 122.67 42.8301 123.46 42.1301C123.97 41.6801 125.21 40.7001 129.49 38.8201C130.32 39.9501 132.62 40.1401 133.71 38.8101Z" fill="white"/>
<path fill-rule="evenodd" clip-rule="evenodd" d="M134.25 39.0498C138.05 40.7598 139.25 41.6898 139.73 42.1298C140.53 42.8298 140.96 45.4598 141.43 47.6798H131.59H121.75C122.22 45.4498 122.66 42.8298 123.45 42.1298C123.94 41.6998 125.08 40.7998 128.83 39.1098C130.51 40.8698 133.66 40.3098 134.25 39.0498Z" fill="#68C497"/>
<path fill-rule="evenodd" clip-rule="evenodd" d="M20.7005 72.4702C28.1805 72.6202 29.0205 63.7902 28.7505 59.4402C28.2405 51.3102 20.8705 48.0502 17.8605 50.8502C14.6605 50.8502 13.1605 54.8302 12.8005 59.3702C12.3205 65.4102 14.5405 72.3502 20.7005 72.4702Z" fill="#3A3A3A"/>
<path fill-rule="evenodd" clip-rule="evenodd" d="M18.5405 66.9805C18.5905 67.0605 23.3305 67.1305 23.3805 67.2105C24.8705 69.3305 28.0805 70.2605 30.6405 70.8305C33.1805 71.4005 33.2805 74.6305 33.2905 76.7805H8.48047C8.48047 74.6305 8.53047 71.4105 11.1305 70.8305C13.7205 70.2505 17.1305 69.2005 18.5405 66.9805Z" fill="#FFDECC"/>
<path fill-rule="evenodd" clip-rule="evenodd" d="M18.4004 62.4504V68.5404C19.7704 70.3404 22.0004 70.2704 23.3704 68.5404V62.4504C23.3704 59.1604 18.4004 59.1604 18.4004 62.4504Z" fill="#FFDECC"/>
<path fill-rule="evenodd" clip-rule="evenodd" d="M18.4004 62.4504V66.5304C19.3404 67.2704 20.2504 67.6804 20.8804 67.6804C21.5204 67.6804 22.4204 67.2704 23.3604 66.5304V62.4504C23.3704 59.1604 18.4004 59.1604 18.4004 62.4504Z" fill="#F7C5AA"/>
<path fill-rule="evenodd" clip-rule="evenodd" d="M20.8802 66.66C22.5002 66.66 25.9102 64.12 26.9702 60.47C28.0402 56.79 26.0302 51.52 20.8802 51.52C15.7302 51.52 13.7202 56.8 14.7902 60.47C15.8502 64.11 19.2602 66.66 20.8802 66.66Z" fill="#FFDECC"/>
<path fill-rule="evenodd" clip-rule="evenodd" d="M27.99 58.2502C27.47 58.0302 26.73 58.5702 26.35 59.4702C25.96 60.3702 26.07 61.2802 26.59 61.5002C27.11 61.7202 27.85 61.1802 28.23 60.2802C28.62 59.3902 28.51 58.4702 27.99 58.2502Z" fill="#FFDECC"/>
<path fill-rule="evenodd" clip-rule="evenodd" d="M13.63 58.2502C14.15 58.0302 14.89 58.5702 15.27 59.4702C15.66 60.3702 15.55 61.2802 15.03 61.5002C14.51 61.7202 13.77 61.1802 13.39 60.2802C13 59.3902 13.11 58.4702 13.63 58.2502Z" fill="#FFDECC"/>
<path fill-rule="evenodd" clip-rule="evenodd" d="M14.3001 60.4003C12.3401 52.0203 18.2501 50.5903 21.6901 50.5903C25.5701 50.5903 28.4901 55.1903 27.8401 60.5503C25.7701 59.3003 23.9501 56.8403 19.4301 52.8203C20.0901 54.0003 21.3701 56.1403 25.7301 60.0303C23.3801 60.4203 19.0201 57.4603 16.6901 54.3703C16.1201 56.5803 15.3201 58.9903 14.3001 60.4003Z" fill="#3A3A3A"/>
<path fill-rule="evenodd" clip-rule="evenodd" d="M26.1905 69.4101C27.6005 70.0901 29.2205 70.5201 30.6405 70.8301C33.1805 71.4001 33.2805 74.6301 33.2905 76.7801H8.48047C8.48047 74.6301 8.53047 71.4101 11.1305 70.8301C12.5205 70.5201 14.1405 70.0701 15.5705 69.3901V69.4001C17.7005 72.9501 19.6605 74.8801 20.8805 75.5701C22.1105 74.8701 24.0605 72.9401 26.1905 69.4101Z" fill="#D85656"/>
<path fill-rule="evenodd" clip-rule="evenodd" d="M70.51 5.9002C69.69 6.0302 69.23 6.6002 69.04 7.3602C68.53 9.3502 69.59 13.6802 73.27 13.7302C75.17 13.7602 76.53 13.2702 77.03 11.7402C77.53 10.2102 77.73 7.7302 76.65 6.3502C75.29 4.6002 72.44 4.5902 70.51 5.9002Z" fill="#010101"/>
<path fill-rule="evenodd" clip-rule="evenodd" d="M74.8598 16.0601C78.2998 17.5701 79.3298 18.3701 79.7398 18.7301C80.3698 19.2901 80.7198 21.3601 81.0898 23.1201H73.2998H65.5098C65.8798 21.3601 66.2298 19.2801 66.8598 18.7301C67.2698 18.3701 68.2598 17.5901 71.6998 16.0801L74.8598 16.0601Z" fill="#FFD16E"/>
<path fill-rule="evenodd" clip-rule="evenodd" d="M71.6396 13.0601V16.8701C72.5596 18.0001 74.0596 17.9601 74.9796 16.8701V13.0601C74.9796 11.0001 71.6396 11.0001 71.6396 13.0601Z" fill="#834C27"/>
<path opacity="0.3" fill-rule="evenodd" clip-rule="evenodd" d="M71.6396 13.0601V15.6101C72.2696 16.0701 72.8796 16.3301 73.3096 16.3301C73.7396 16.3301 74.3496 16.0701 74.9796 15.6101V13.0601C74.9796 11.0001 71.6396 11.0001 71.6396 13.0601Z" fill="#010101"/>
<path fill-rule="evenodd" clip-rule="evenodd" d="M73.3098 6.20996C78.9198 6.20996 76.8998 12.99 76.5398 13.53C76.1398 14.12 74.2198 15.7 73.3098 15.7C72.3998 15.7 70.4898 14.12 70.0798 13.53C69.7198 12.98 67.6998 6.20996 73.3098 6.20996Z" fill="#834C27"/>
<path fill-rule="evenodd" clip-rule="evenodd" d="M77.6197 9.9203C77.3297 9.8203 76.9497 10.1603 76.7797 10.6703C76.6097 11.1803 76.7197 11.6703 77.0097 11.7703C77.2997 11.8703 77.6797 11.5303 77.8497 11.0203C78.0097 10.5103 77.9097 10.0203 77.6197 9.9203Z" fill="#834C27"/>
<path fill-rule="evenodd" clip-rule="evenodd" d="M69.0097 9.9203C69.2997 9.8203 69.6797 10.1603 69.8497 10.6703C70.0197 11.1803 69.9097 11.6703 69.6197 11.7703C69.3297 11.8703 68.9497 11.5303 68.7797 11.0203C68.6097 10.5103 68.7197 10.0203 69.0097 9.9203Z" fill="#834C27"/>
<path fill-rule="evenodd" clip-rule="evenodd" d="M70.5598 7.89015C71.5498 8.50015 72.7198 8.28015 72.2598 7.75015C71.8098 7.22015 72.3098 7.59015 73.1898 7.98015C74.0798 8.37015 75.0998 8.30015 74.4998 7.98015C73.7598 7.58015 76.6398 7.32015 77.1598 11.4201C77.9998 8.45015 76.5798 5.96015 73.3698 5.81015C69.9398 5.66015 68.5498 8.37015 69.4998 11.3301C69.4398 9.73015 69.8298 8.68015 70.5598 7.89015Z" fill="#010101"/>
<path fill-rule="evenodd" clip-rule="evenodd" d="M73.2998 17.8103L74.5998 19.0503L76.3198 16.6703L75.1298 16.0303L73.2998 17.8103Z" fill="white"/>
<path fill-rule="evenodd" clip-rule="evenodd" d="M73.2993 17.8103L71.9993 19.0503L70.2793 16.6703L71.4693 16.0303L73.2993 17.8103Z" fill="white"/>
<path fill-rule="evenodd" clip-rule="evenodd" d="M181.48 69.0798C181.05 68.3898 177.65 67.7898 176.26 70.2298C174.87 72.6698 175.57 73.5298 174.81 74.3898C174.04 75.2498 174.77 77.2298 175.3 77.3998C175.83 77.5698 175.62 78.2598 175.36 78.5498C174.25 79.7998 175.85 81.9198 180.13 81.8998C184.7 81.8798 185.6 79.4198 184.43 78.6498C184.05 78.3998 183.9 77.9198 184.32 77.4998C184.74 77.0798 185.7 75.4998 184.79 74.2098C183.87 72.9098 184.67 69.0798 181.48 69.0798Z" fill="#4D1B02"/>
<path fill-rule="evenodd" clip-rule="evenodd" d="M178.37 79.1299C178.4 79.1799 181.46 79.2299 181.5 79.2799C182.46 80.6499 184.54 81.2499 186.19 81.6199C187.83 81.9899 187.9 84.0699 187.9 85.4599H171.88C171.88 84.0699 171.91 81.9899 173.59 81.6199C175.26 81.2399 177.46 80.5599 178.37 79.1299Z" fill="#6A9ECE"/>
<path fill-rule="evenodd" clip-rule="evenodd" d="M178.28 76.1999V80.1299C179.24 81.8199 180.69 81.7799 181.49 80.1299V76.1999C181.49 74.0799 178.28 74.0799 178.28 76.1999Z" fill="#E2B596"/>
<path opacity="0.2" fill-rule="evenodd" clip-rule="evenodd" d="M178.28 76.1999V78.8299C178.89 79.3099 179.47 79.5699 179.88 79.5699C180.29 79.5699 180.88 79.2999 181.48 78.8299V76.1999C181.49 74.0799 178.28 74.0799 178.28 76.1999Z" fill="#4D1B02"/>
<path fill-rule="evenodd" clip-rule="evenodd" d="M179.88 78.9196C180.92 78.9196 183.13 77.2796 183.81 74.9196C184.5 72.5396 183.2 69.1396 179.88 69.1396C176.55 69.1396 175.26 72.5496 175.95 74.9196C176.63 77.2796 178.84 78.9196 179.88 78.9196Z" fill="#E2B596"/>
<path fill-rule="evenodd" clip-rule="evenodd" d="M175.45 74.3697C175.79 74.2297 176.26 74.5797 176.51 75.1597C176.76 75.7397 176.69 76.3297 176.35 76.4697C176.01 76.6097 175.54 76.2597 175.29 75.6797C175.04 75.0997 175.11 74.5097 175.45 74.3697Z" fill="#E2B596"/>
<path fill-rule="evenodd" clip-rule="evenodd" d="M184.32 74.3697C183.98 74.2297 183.51 74.5797 183.26 75.1597C183.01 75.7397 183.08 76.3297 183.42 76.4697C183.76 76.6097 184.23 76.2597 184.48 75.6797C184.73 75.0997 184.66 74.5097 184.32 74.3697Z" fill="#E2B596"/>
<path fill-rule="evenodd" clip-rule="evenodd" d="M178.13 71.2797C178.08 73.0997 177.99 74.1997 176.93 73.7697C175.88 73.3397 176.08 74.5497 176.27 75.4097C175.34 74.2497 175.45 73.1397 175.74 72.0197C176.06 70.7897 177.66 68.9197 179.16 68.9497C179.98 68.8697 181.21 68.9697 182.53 69.8997C184.83 71.5297 184.06 75.1797 183.44 75.6097C184.04 72.2197 182.57 72.9097 181.56 71.1397C181.23 70.3597 178.17 69.3697 178.13 71.2797Z" fill="#4D1B02"/>
<path fill-rule="evenodd" clip-rule="evenodd" d="M181.49 79.2695L182.63 80.3195L181.18 82.5795L179.92 81.3895L181.49 79.2695Z" fill="#7FAFD3"/>
<path fill-rule="evenodd" clip-rule="evenodd" d="M178.28 79.2598L177.13 80.3598L178.66 82.5798L179.92 81.3898L178.28 79.2598Z" fill="#7FAFD3"/>
</svg>
