<svg width="300" height="156" viewBox="0 0 300 156" fill="none" xmlns="http://www.w3.org/2000/svg">
<path fill-rule="evenodd" clip-rule="evenodd" d="M58.9168 79.459L0 148.025H299.571L235.531 79.459H58.9168Z" fill="#CCAB82"/>
<path fill-rule="evenodd" clip-rule="evenodd" d="M170.849 33.1026L152.61 23.652L157.904 13.4116L176.143 22.8623L170.849 33.1026Z" fill="#7A8A7A"/>
<path fill-rule="evenodd" clip-rule="evenodd" d="M166.367 19.0884L152.611 23.6522L170.85 33.1028L166.367 19.0884Z" fill="#717F71"/>
<path fill-rule="evenodd" clip-rule="evenodd" d="M175.882 22.7272L157.904 13.4116L163.639 24.3651L175.882 22.7272Z" fill="#889988"/>
<path fill-rule="evenodd" clip-rule="evenodd" d="M138.194 0.503906L114.336 7.93067L118.496 21.3263L142.355 13.8995L138.194 0.503906Z" fill="#A59E5D"/>
<path fill-rule="evenodd" clip-rule="evenodd" d="M126.85 5.49707L142.355 13.9L118.496 21.3268L126.85 5.49707Z" fill="#B7B06E"/>
<path fill-rule="evenodd" clip-rule="evenodd" d="M138.195 0.503906L114.677 7.82434L128.993 12.3997L138.195 0.503906Z" fill="#BFBA68"/>
<path fill-rule="evenodd" clip-rule="evenodd" d="M203.549 134.146H96.0183C94.8243 134.146 93.5634 133.543 93.4355 131.787V130.174L105.206 108.399C105.839 107.123 107.138 106.316 108.561 106.316H190.849C192.385 106.316 195.771 109.344 196.457 110.719L206.168 130.537V131.25C206.192 133.313 204.859 134.146 203.549 134.146Z" fill="#3B4D57"/>
<path fill-rule="evenodd" clip-rule="evenodd" d="M203.559 131.866H96.028C94.834 131.866 92.8684 130.818 93.6068 129.529L105.216 106.119C105.848 104.843 107.148 104.036 108.571 104.036H190.859C192.395 104.036 193.798 104.905 194.485 106.28L205.976 129.302C206.782 130.77 204.869 131.866 203.559 131.866Z" fill="#E8E4D7"/>
<mask id="mask0" mask-type="alpha" maskUnits="userSpaceOnUse" x="0" y="0" width="300" height="156">
<path fill-rule="evenodd" clip-rule="evenodd" d="M0 155.373H299.571V0.503906H0V155.373Z" fill="white"/>
</mask>
<g mask="url(#mask0)">
<path fill-rule="evenodd" clip-rule="evenodd" d="M105.594 104.15H193.653V48.4395H105.594V104.15Z" fill="#3B4D57"/>
<path fill-rule="evenodd" clip-rule="evenodd" d="M108.975 99.7517H190.241V51.478H108.975V99.7517Z" fill="#BCB5A5"/>
<path fill-rule="evenodd" clip-rule="evenodd" d="M113.349 109.042H109.911C109.432 109.042 109.101 108.9 109.172 108.725L109.381 108.21C109.451 108.038 109.892 107.899 110.366 107.899H113.764C114.238 107.899 114.573 108.038 114.512 108.21L114.329 108.725C114.268 108.9 113.829 109.042 113.349 109.042Z" fill="#8A867E"/>
<path fill-rule="evenodd" clip-rule="evenodd" d="M119.146 109.042H115.708C115.229 109.042 114.89 108.9 114.95 108.725L115.13 108.21C115.189 108.038 115.622 107.899 116.096 107.899H119.494C119.968 107.899 120.311 108.038 120.26 108.21L120.108 108.725C120.056 108.9 119.625 109.042 119.146 109.042Z" fill="#8A867E"/>
<path fill-rule="evenodd" clip-rule="evenodd" d="M124.944 109.042H121.506C121.027 109.042 120.679 108.9 120.729 108.725L120.878 108.21C120.928 108.038 121.353 107.899 121.827 107.899H125.224C125.699 107.899 126.05 108.038 126.009 108.21L125.887 108.725C125.846 108.9 125.423 109.042 124.944 109.042Z" fill="#8A867E"/>
<path fill-rule="evenodd" clip-rule="evenodd" d="M130.742 109.042H127.304C126.825 109.042 126.469 108.9 126.509 108.725L126.628 108.21C126.668 108.038 127.084 107.899 127.557 107.899H130.956C131.43 107.899 131.789 108.038 131.758 108.21L131.667 108.725C131.636 108.9 131.222 109.042 130.742 109.042Z" fill="#8A867E"/>
<path fill-rule="evenodd" clip-rule="evenodd" d="M136.54 109.042H133.102C132.623 109.042 132.258 108.9 132.288 108.725L132.376 108.21C132.406 108.038 132.814 107.899 133.288 107.899H136.686C137.16 107.899 137.527 108.038 137.507 108.21L137.446 108.725C137.425 108.9 137.019 109.042 136.54 109.042Z" fill="#8A867E"/>
<path fill-rule="evenodd" clip-rule="evenodd" d="M142.338 109.042H138.9C138.421 109.042 138.048 108.9 138.067 108.725L138.126 108.21C138.145 108.038 138.545 107.899 139.018 107.899H142.417C142.891 107.899 143.266 108.038 143.256 108.21L143.225 108.725C143.214 108.9 142.817 109.042 142.338 109.042Z" fill="#8A867E"/>
<path fill-rule="evenodd" clip-rule="evenodd" d="M148.136 109.042H144.698C144.219 109.042 143.838 108.9 143.847 108.725L143.875 108.21C143.884 108.038 144.276 107.899 144.75 107.899H148.148C148.622 107.899 149.006 108.038 149.005 108.21L149.005 108.725C149.004 108.9 148.616 109.042 148.136 109.042Z" fill="#8A867E"/>
<path fill-rule="evenodd" clip-rule="evenodd" d="M153.934 109.042H150.496C150.017 109.042 149.627 108.9 149.627 108.725L149.624 108.21C149.623 108.038 150.007 107.899 150.481 107.899H153.878C154.353 107.899 154.745 108.038 154.754 108.21L154.784 108.725C154.794 108.9 154.413 109.042 153.934 109.042Z" fill="#8A867E"/>
<path fill-rule="evenodd" clip-rule="evenodd" d="M159.732 109.042H156.294C155.815 109.042 155.417 108.9 155.406 108.725L155.373 108.21C155.362 108.038 155.738 107.899 156.211 107.899H159.61C160.083 107.899 160.484 108.038 160.503 108.21L160.563 108.725C160.584 108.9 160.211 109.042 159.732 109.042Z" fill="#8A867E"/>
<path fill-rule="evenodd" clip-rule="evenodd" d="M165.529 109.042H162.091C161.612 109.042 161.206 108.9 161.185 108.725L161.122 108.21C161.101 108.038 161.468 107.899 161.942 107.899H165.34C165.814 107.899 166.222 108.038 166.252 108.21L166.342 108.725C166.372 108.9 166.009 109.042 165.529 109.042Z" fill="#8A867E"/>
<path fill-rule="evenodd" clip-rule="evenodd" d="M171.327 109.042H167.889C167.41 109.042 166.995 108.9 166.964 108.725L166.871 108.21C166.84 108.038 167.199 107.899 167.672 107.899H171.071C171.545 107.899 171.961 108.038 172.001 108.21L172.122 108.725C172.162 108.9 171.807 109.042 171.327 109.042Z" fill="#8A867E"/>
<path fill-rule="evenodd" clip-rule="evenodd" d="M177.125 109.042H173.687C173.208 109.042 172.785 108.9 172.743 108.725L172.62 108.21C172.578 108.038 172.929 107.899 173.403 107.899H176.801C177.275 107.899 177.7 108.038 177.75 108.21L177.901 108.725C177.952 108.9 177.605 109.042 177.125 109.042Z" fill="#8A867E"/>
<path fill-rule="evenodd" clip-rule="evenodd" d="M182.923 109.042H179.485C179.006 109.042 178.574 108.9 178.522 108.725L178.368 108.21C178.317 108.038 178.66 107.899 179.134 107.899H182.532C183.006 107.899 183.439 108.038 183.499 108.21L183.68 108.725C183.741 108.9 183.402 109.042 182.923 109.042Z" fill="#8A867E"/>
<path fill-rule="evenodd" clip-rule="evenodd" d="M188.721 109.042H185.283C184.804 109.042 184.364 108.9 184.302 108.725L184.118 108.21C184.056 108.038 184.391 107.899 184.865 107.899H188.263C188.736 107.899 189.178 108.038 189.248 108.21L189.459 108.725C189.531 108.9 189.2 109.042 188.721 109.042Z" fill="#8A867E"/>
<path fill-rule="evenodd" clip-rule="evenodd" d="M113.032 110.967H108.645C108.535 110.967 108.46 110.934 108.477 110.893L109.127 109.286C109.143 109.247 109.243 109.215 109.35 109.215H113.661C113.769 109.215 113.844 109.247 113.83 109.286L113.256 110.893C113.241 110.934 113.141 110.967 113.032 110.967Z" fill="#8A867E"/>
<path fill-rule="evenodd" clip-rule="evenodd" d="M121.131 113.075H116.652C116.54 113.075 116.461 113.041 116.474 112.999L117.008 111.324C117.021 111.283 117.12 111.25 117.23 111.25H121.629C121.739 111.25 121.818 111.283 121.807 111.324L121.354 112.999C121.342 113.041 121.242 113.075 121.131 113.075Z" fill="#8A867E"/>
<path fill-rule="evenodd" clip-rule="evenodd" d="M121.864 115.273H117.289C117.175 115.273 117.093 115.237 117.107 115.193L117.641 113.447C117.654 113.404 117.755 113.37 117.868 113.37H122.359C122.471 113.37 122.553 113.404 122.542 113.447L122.091 115.193C122.079 115.237 121.977 115.273 121.864 115.273Z" fill="#8A867E"/>
<path fill-rule="evenodd" clip-rule="evenodd" d="M124.439 117.568H119.764C119.648 117.568 119.563 117.53 119.577 117.484L120.08 115.661C120.092 115.617 120.195 115.581 120.309 115.581H124.898C125.012 115.581 125.096 115.617 125.086 115.661L124.669 117.484C124.658 117.53 124.555 117.568 124.439 117.568Z" fill="#8A867E"/>
<path fill-rule="evenodd" clip-rule="evenodd" d="M109.69 120.234H104.925C104.799 120.234 104.713 120.192 104.734 120.14L105.61 117.977C105.63 117.928 105.746 117.887 105.87 117.887H110.533C110.657 117.887 110.743 117.928 110.726 117.977L109.952 120.14C109.934 120.192 109.817 120.234 109.69 120.234Z" fill="#8A867E"/>
<path fill-rule="evenodd" clip-rule="evenodd" d="M116.052 120.234H111.287C111.161 120.234 111.073 120.192 111.09 120.14L111.841 117.977C111.858 117.928 111.973 117.887 112.096 117.887H116.759C116.883 117.887 116.971 117.928 116.957 117.977L116.309 120.14C116.294 120.192 116.179 120.234 116.052 120.234Z" fill="#8A867E"/>
<path fill-rule="evenodd" clip-rule="evenodd" d="M122.223 120.234H117.458C117.332 120.234 117.241 120.192 117.257 120.14L117.885 117.977C117.9 117.928 118.012 117.887 118.136 117.887H122.798C122.923 117.887 123.013 117.928 123.001 117.977L122.475 120.14C122.463 120.192 122.35 120.234 122.223 120.234Z" fill="#8A867E"/>
<path fill-rule="evenodd" clip-rule="evenodd" d="M130 120.234H123.713C123.568 120.234 123.462 120.186 123.476 120.127L123.976 117.99C123.99 117.933 124.115 117.887 124.256 117.887H130.409C130.551 117.887 130.658 117.933 130.648 117.99L130.28 120.127C130.27 120.186 130.144 120.234 130 120.234Z" fill="#8A867E"/>
<path fill-rule="evenodd" clip-rule="evenodd" d="M168.675 120.234H162.388C162.244 120.234 162.12 120.186 162.114 120.127L161.862 117.99C161.855 117.933 161.964 117.887 162.106 117.887H168.258C168.4 117.887 168.523 117.933 168.533 117.99L168.918 120.127C168.928 120.186 168.819 120.234 168.675 120.234Z" fill="#8A867E"/>
<path fill-rule="evenodd" clip-rule="evenodd" d="M175.04 120.234H170.343C170.217 120.234 170.108 120.192 170.098 120.141L169.685 117.976C169.676 117.927 169.768 117.887 169.891 117.887H174.488C174.611 117.887 174.72 117.927 174.732 117.976L175.246 120.141C175.258 120.192 175.166 120.234 175.04 120.234Z" fill="#8A867E"/>
<path fill-rule="evenodd" clip-rule="evenodd" d="M160.82 120.234H131.811C131.507 120.234 131.276 120.133 131.296 120.01L131.607 118.102C131.626 117.983 131.884 117.887 132.181 117.887H160.571C160.869 117.887 161.121 117.983 161.134 118.102L161.346 120.01C161.36 120.133 161.124 120.234 160.82 120.234Z" fill="#8A867E"/>
<path fill-rule="evenodd" clip-rule="evenodd" d="M130.51 117.568H125.835C125.718 117.568 125.632 117.53 125.642 117.484L126.043 115.661C126.053 115.617 126.153 115.581 126.268 115.581H130.856C130.97 115.581 131.056 115.617 131.049 115.661L130.735 117.484C130.727 117.53 130.626 117.568 130.51 117.568Z" fill="#8A867E"/>
<path fill-rule="evenodd" clip-rule="evenodd" d="M136.58 117.568H131.905C131.789 117.568 131.701 117.53 131.708 117.484L132.005 115.661C132.013 115.617 132.111 115.581 132.225 115.581H136.814C136.928 115.581 137.016 115.617 137.011 115.661L136.801 117.484C136.795 117.53 136.697 117.568 136.58 117.568Z" fill="#8A867E"/>
<path fill-rule="evenodd" clip-rule="evenodd" d="M142.652 117.568H137.976C137.86 117.568 137.77 117.53 137.775 117.484L137.969 115.661C137.973 115.617 138.07 115.581 138.184 115.581H142.772C142.887 115.581 142.977 115.617 142.975 115.661L142.868 117.484C142.865 117.53 142.768 117.568 142.652 117.568Z" fill="#8A867E"/>
<path fill-rule="evenodd" clip-rule="evenodd" d="M148.722 117.568H144.047C143.931 117.568 143.838 117.53 143.841 117.484L143.931 115.661C143.933 115.617 144.028 115.581 144.142 115.581H148.73C148.845 115.581 148.937 115.617 148.937 115.661L148.933 117.484C148.933 117.53 148.839 117.568 148.722 117.568Z" fill="#8A867E"/>
<path fill-rule="evenodd" clip-rule="evenodd" d="M154.793 117.568H150.118C150.002 117.568 149.907 117.53 149.907 117.484L149.895 115.661C149.894 115.617 149.987 115.581 150.101 115.581H154.689C154.803 115.581 154.898 115.617 154.9 115.661L155 117.484C155.002 117.53 154.909 117.568 154.793 117.568Z" fill="#8A867E"/>
<path fill-rule="evenodd" clip-rule="evenodd" d="M160.864 117.568H156.189C156.073 117.568 155.976 117.53 155.973 117.484L155.857 115.661C155.854 115.617 155.945 115.581 156.059 115.581H160.647C160.762 115.581 160.858 115.617 160.863 115.661L161.066 117.484C161.071 117.53 160.981 117.568 160.864 117.568Z" fill="#8A867E"/>
<path fill-rule="evenodd" clip-rule="evenodd" d="M166.935 117.568H162.26C162.144 117.568 162.045 117.53 162.04 117.484L161.821 115.661C161.815 115.617 161.903 115.581 162.017 115.581H166.606C166.72 115.581 166.819 115.617 166.826 115.661L167.132 117.484C167.14 117.53 167.051 117.568 166.935 117.568Z" fill="#8A867E"/>
<path fill-rule="evenodd" clip-rule="evenodd" d="M173.007 117.568H168.331C168.215 117.568 168.114 117.53 168.106 117.484L167.784 115.661C167.776 115.617 167.862 115.581 167.977 115.581H172.565C172.679 115.581 172.78 115.617 172.79 115.661L173.199 117.484C173.209 117.53 173.123 117.568 173.007 117.568Z" fill="#8A867E"/>
<path fill-rule="evenodd" clip-rule="evenodd" d="M180.668 120.27H177.025C176.562 120.27 176.149 120.118 176.102 119.93L175.968 119.383C175.922 119.198 176.257 119.048 176.715 119.048H180.318C180.776 119.048 181.192 119.198 181.246 119.383L181.407 119.93C181.462 120.118 181.131 120.27 180.668 120.27Z" fill="#8A867E"/>
<path fill-rule="evenodd" clip-rule="evenodd" d="M186.911 120.27H183.268C182.804 120.27 182.383 120.118 182.326 119.93L182.161 119.383C182.104 119.198 182.43 119.048 182.888 119.048H186.492C186.95 119.048 187.373 119.198 187.439 119.383L187.631 119.93C187.697 120.118 187.374 120.27 186.911 120.27Z" fill="#8A867E"/>
<path fill-rule="evenodd" clip-rule="evenodd" d="M186.441 118.902H182.843C182.386 118.902 181.97 118.753 181.914 118.57L181.753 118.037C181.698 117.856 182.021 117.709 182.473 117.709H186.032C186.485 117.709 186.902 117.856 186.966 118.037L187.153 118.57C187.218 118.753 186.899 118.902 186.441 118.902Z" fill="#8A867E"/>
<path fill-rule="evenodd" clip-rule="evenodd" d="M193.155 120.27H189.511C189.048 120.27 188.617 120.118 188.55 119.93L188.354 119.383C188.287 119.198 188.604 119.048 189.062 119.048H192.665C193.123 119.048 193.556 119.198 193.632 119.383L193.855 119.93C193.931 120.118 193.618 120.27 193.155 120.27Z" fill="#8A867E"/>
<path fill-rule="evenodd" clip-rule="evenodd" d="M127.859 115.273H123.284C123.17 115.273 123.087 115.237 123.098 115.193L123.532 113.447C123.543 113.404 123.642 113.37 123.754 113.37H128.245C128.358 113.37 128.441 113.404 128.433 113.447L128.081 115.193C128.072 115.237 127.973 115.273 127.859 115.273Z" fill="#8A867E"/>
<path fill-rule="evenodd" clip-rule="evenodd" d="M133.855 115.273H129.28C129.166 115.273 129.081 115.237 129.089 115.193L129.424 113.447C129.432 113.404 129.529 113.37 129.641 113.37H134.133C134.245 113.37 134.331 113.404 134.324 113.447L134.073 115.193C134.067 115.237 133.969 115.273 133.855 115.273Z" fill="#8A867E"/>
<path fill-rule="evenodd" clip-rule="evenodd" d="M139.852 115.273H135.277C135.163 115.273 135.075 115.237 135.081 115.193L135.316 113.447C135.321 113.404 135.417 113.37 135.529 113.37H140.021C140.133 113.37 140.22 113.404 140.217 113.447L140.065 115.193C140.061 115.237 139.965 115.273 139.852 115.273Z" fill="#8A867E"/>
<path fill-rule="evenodd" clip-rule="evenodd" d="M145.81 115.273H141.235C141.121 115.273 141.032 115.237 141.035 115.193L141.171 113.447C141.174 113.404 141.267 113.37 141.379 113.37H145.871C145.983 113.37 146.072 113.404 146.071 113.447L146.019 115.193C146.017 115.237 145.924 115.273 145.81 115.273Z" fill="#8A867E"/>
<path fill-rule="evenodd" clip-rule="evenodd" d="M151.807 115.273H147.232C147.118 115.273 147.026 115.237 147.027 115.193L147.063 113.447C147.064 113.404 147.155 113.37 147.267 113.37H151.759C151.871 113.37 151.962 113.404 151.964 113.447L152.011 115.193C152.012 115.237 151.92 115.273 151.807 115.273Z" fill="#8A867E"/>
<path fill-rule="evenodd" clip-rule="evenodd" d="M157.546 115.273H152.971C152.857 115.273 152.764 115.237 152.762 115.193L152.702 113.447C152.701 113.404 152.79 113.37 152.902 113.37H157.394C157.506 113.37 157.599 113.404 157.603 113.447L157.746 115.193C157.749 115.237 157.66 115.273 157.546 115.273Z" fill="#8A867E"/>
<path fill-rule="evenodd" clip-rule="evenodd" d="M163.486 115.273H158.911C158.797 115.273 158.702 115.237 158.698 115.193L158.539 113.447C158.535 113.404 158.623 113.37 158.734 113.37H163.226C163.338 113.37 163.434 113.404 163.44 113.447L163.681 115.193C163.688 115.237 163.6 115.273 163.486 115.273Z" fill="#8A867E"/>
<path fill-rule="evenodd" clip-rule="evenodd" d="M169.428 115.273H164.853C164.739 115.273 164.642 115.237 164.635 115.193L164.377 113.447C164.371 113.404 164.457 113.37 164.569 113.37H169.06C169.172 113.37 169.27 113.404 169.278 113.447L169.619 115.193C169.627 115.237 169.542 115.273 169.428 115.273Z" fill="#8A867E"/>
<path fill-rule="evenodd" clip-rule="evenodd" d="M175.332 115.273H170.757C170.643 115.273 170.543 115.237 170.534 115.193L170.178 113.447C170.17 113.404 170.253 113.37 170.365 113.37H174.857C174.969 113.37 175.068 113.404 175.079 113.447L175.518 115.193C175.529 115.237 175.445 115.273 175.332 115.273Z" fill="#8A867E"/>
<path fill-rule="evenodd" clip-rule="evenodd" d="M181.237 115.273H176.662C176.548 115.273 176.446 115.237 176.435 115.193L175.98 113.447C175.969 113.404 176.051 113.37 176.163 113.37H180.655C180.766 113.37 180.868 113.404 180.881 113.447L181.418 115.193C181.432 115.237 181.35 115.273 181.237 115.273Z" fill="#8A867E"/>
<path fill-rule="evenodd" clip-rule="evenodd" d="M179.018 117.568H174.343C174.226 117.568 174.123 117.53 174.113 117.484L173.688 115.661C173.678 115.617 173.762 115.581 173.876 115.581H178.465C178.579 115.581 178.682 115.617 178.694 115.661L179.205 117.484C179.218 117.53 179.134 117.568 179.018 117.568Z" fill="#8A867E"/>
<path fill-rule="evenodd" clip-rule="evenodd" d="M191.697 115.273H182.863C182.706 115.273 182.564 115.224 182.545 115.163L182.007 113.476C181.988 113.417 182.098 113.37 182.251 113.37H190.925C191.078 113.37 191.222 113.417 191.246 113.476L191.935 115.163C191.96 115.224 191.853 115.273 191.697 115.273Z" fill="#8A867E"/>
<path fill-rule="evenodd" clip-rule="evenodd" d="M192.583 117.568H180.477C180.293 117.568 180.127 117.508 180.105 117.435L179.607 115.709C179.586 115.638 179.716 115.581 179.897 115.581H191.778C191.959 115.581 192.129 115.638 192.158 115.709L192.863 117.435C192.892 117.508 192.767 117.568 192.583 117.568Z" fill="#8A867E"/>
<path fill-rule="evenodd" clip-rule="evenodd" d="M115.917 115.273H106.988C106.831 115.273 106.724 115.224 106.749 115.163L107.431 113.476C107.455 113.418 107.599 113.37 107.754 113.37H116.521C116.675 113.37 116.785 113.418 116.766 113.476L116.237 115.163C116.217 115.224 116.074 115.273 115.917 115.273Z" fill="#8A867E"/>
<path fill-rule="evenodd" clip-rule="evenodd" d="M118.293 117.568H106.011C105.826 117.568 105.699 117.508 105.729 117.434L106.429 115.71C106.458 115.639 106.629 115.581 106.811 115.581H118.865C119.047 115.581 119.179 115.639 119.158 115.71L118.667 117.434C118.646 117.508 118.478 117.568 118.293 117.568Z" fill="#8A867E"/>
<path fill-rule="evenodd" clip-rule="evenodd" d="M126.972 113.075H122.493C122.381 113.075 122.3 113.041 122.311 112.999L122.749 111.324C122.76 111.283 122.857 111.25 122.967 111.25H127.366C127.476 111.25 127.558 111.283 127.548 111.324L127.19 112.999C127.181 113.041 127.083 113.075 126.972 113.075Z" fill="#8A867E"/>
<path fill-rule="evenodd" clip-rule="evenodd" d="M132.776 113.075H128.297C128.186 113.075 128.102 113.041 128.111 112.999L128.454 111.324C128.463 111.283 128.559 111.25 128.668 111.25H133.068C133.177 111.25 133.261 111.283 133.254 111.324L132.99 112.999C132.984 113.041 132.888 113.075 132.776 113.075Z" fill="#8A867E"/>
<path fill-rule="evenodd" clip-rule="evenodd" d="M138.616 113.075H134.137C134.026 113.075 133.941 113.041 133.947 112.999L134.195 111.324C134.201 111.283 134.295 111.25 134.405 111.25H138.804C138.913 111.25 138.999 111.283 138.995 111.324L138.826 112.999C138.822 113.041 138.728 113.075 138.616 113.075Z" fill="#8A867E"/>
<path fill-rule="evenodd" clip-rule="evenodd" d="M144.456 113.075H139.978C139.866 113.075 139.779 113.041 139.782 112.999L139.936 111.324C139.939 111.283 140.031 111.25 140.141 111.25H144.54C144.65 111.25 144.737 111.283 144.735 111.324L144.662 112.999C144.66 113.041 144.568 113.075 144.456 113.075Z" fill="#8A867E"/>
<path fill-rule="evenodd" clip-rule="evenodd" d="M150.261 113.075H145.782C145.671 113.075 145.582 113.041 145.583 112.999L145.641 111.324C145.643 111.283 145.733 111.25 145.842 111.25H150.242C150.351 111.25 150.44 111.283 150.441 111.324L150.462 112.999C150.463 113.041 150.373 113.075 150.261 113.075Z" fill="#8A867E"/>
<path fill-rule="evenodd" clip-rule="evenodd" d="M155.934 113.075H151.455C151.344 113.075 151.253 113.041 151.252 112.999L151.218 111.324C151.217 111.283 151.305 111.25 151.415 111.25H155.814C155.924 111.25 156.015 111.283 156.017 111.324L156.131 112.999C156.134 113.041 156.046 113.075 155.934 113.075Z" fill="#8A867E"/>
<path fill-rule="evenodd" clip-rule="evenodd" d="M161.822 113.075H157.343C157.231 113.075 157.138 113.041 157.135 112.999L157.005 111.324C157.002 111.283 157.088 111.25 157.198 111.25H161.597C161.707 111.25 161.8 111.283 161.805 111.324L162.014 112.999C162.02 113.041 161.934 113.075 161.822 113.075Z" fill="#8A867E"/>
<path fill-rule="evenodd" clip-rule="evenodd" d="M167.639 113.075H163.16C163.049 113.075 162.953 113.041 162.948 112.999L162.723 111.324C162.717 111.283 162.802 111.25 162.912 111.25H167.311C167.421 111.25 167.515 111.283 167.523 111.324L167.827 112.999C167.835 113.041 167.751 113.075 167.639 113.075Z" fill="#8A867E"/>
<path fill-rule="evenodd" clip-rule="evenodd" d="M173.36 113.075H168.881C168.769 113.075 168.672 113.041 168.664 112.999L168.346 111.324C168.338 111.283 168.421 111.25 168.53 111.25H172.93C173.04 111.25 173.136 111.283 173.146 111.324L173.543 112.999C173.553 113.041 173.471 113.075 173.36 113.075Z" fill="#8A867E"/>
<path fill-rule="evenodd" clip-rule="evenodd" d="M179.319 113.075H174.84C174.728 113.075 174.63 113.041 174.619 112.999L174.204 111.324C174.194 111.283 174.274 111.25 174.384 111.25H178.783C178.893 111.25 178.991 111.283 179.003 111.324L179.498 112.999C179.511 113.041 179.431 113.075 179.319 113.075Z" fill="#8A867E"/>
<path fill-rule="evenodd" clip-rule="evenodd" d="M185.016 113.075H180.537C180.426 113.075 180.325 113.041 180.312 112.999L179.804 111.324C179.791 111.283 179.87 111.25 179.98 111.25H184.379C184.489 111.25 184.589 111.283 184.604 111.324L185.191 112.999C185.206 113.041 185.128 113.075 185.016 113.075Z" fill="#8A867E"/>
<path fill-rule="evenodd" clip-rule="evenodd" d="M190.881 113.075H186.402C186.29 113.075 186.187 113.041 186.172 112.999L185.568 111.324C185.554 111.283 185.63 111.25 185.74 111.25H190.139C190.249 111.25 190.351 111.283 190.368 111.324L191.051 112.999C191.068 113.041 190.992 113.075 190.881 113.075Z" fill="#8A867E"/>
<path fill-rule="evenodd" clip-rule="evenodd" d="M118.834 110.967H114.447C114.338 110.967 114.261 110.934 114.275 110.893L114.833 109.286C114.847 109.247 114.945 109.215 115.052 109.215H119.363C119.47 109.215 119.548 109.247 119.536 109.286L119.054 110.893C119.042 110.934 118.944 110.967 118.834 110.967Z" fill="#8A867E"/>
<path fill-rule="evenodd" clip-rule="evenodd" d="M124.461 110.967H120.074C119.965 110.967 119.886 110.934 119.898 110.893L120.366 109.286C120.377 109.247 120.474 109.215 120.581 109.215H124.891C124.999 109.215 125.078 109.247 125.069 109.286L124.677 110.893C124.667 110.934 124.57 110.967 124.461 110.967Z" fill="#8A867E"/>
<path fill-rule="evenodd" clip-rule="evenodd" d="M130.228 110.967H125.841C125.732 110.967 125.651 110.934 125.661 110.893L126.036 109.286C126.046 109.247 126.14 109.215 126.247 109.215H130.558C130.666 109.215 130.747 109.247 130.739 109.286L130.44 110.893C130.432 110.934 130.338 110.967 130.228 110.967Z" fill="#8A867E"/>
<path fill-rule="evenodd" clip-rule="evenodd" d="M135.853 110.967H131.465C131.356 110.967 131.274 110.934 131.281 110.893L131.567 109.286C131.574 109.247 131.667 109.215 131.774 109.215H136.085C136.192 109.215 136.275 109.247 136.269 109.286L136.06 110.893C136.055 110.934 135.962 110.967 135.853 110.967Z" fill="#8A867E"/>
<path fill-rule="evenodd" clip-rule="evenodd" d="M141.652 110.967H137.265C137.156 110.967 137.071 110.934 137.076 110.893L137.27 109.286C137.274 109.247 137.365 109.215 137.473 109.215H141.783C141.89 109.215 141.976 109.247 141.973 109.286L141.856 110.893C141.853 110.934 141.762 110.967 141.652 110.967Z" fill="#8A867E"/>
<path fill-rule="evenodd" clip-rule="evenodd" d="M147.227 110.967H142.839C142.73 110.967 142.644 110.934 142.647 110.893L142.751 109.286C142.753 109.247 142.842 109.215 142.95 109.215H147.26C147.368 109.215 147.454 109.247 147.454 109.286L147.426 110.893C147.425 110.934 147.336 110.967 147.227 110.967Z" fill="#8A867E"/>
<path fill-rule="evenodd" clip-rule="evenodd" d="M153.017 110.967H148.63C148.521 110.967 148.433 110.934 148.433 110.893L148.445 109.286C148.445 109.247 148.532 109.215 148.639 109.215H152.95C153.057 109.215 153.146 109.247 153.148 109.286L153.212 110.893C153.213 110.934 153.126 110.967 153.017 110.967Z" fill="#8A867E"/>
<path fill-rule="evenodd" clip-rule="evenodd" d="M158.644 110.967H154.257C154.148 110.967 154.058 110.934 154.056 110.893L153.978 109.286C153.976 109.247 154.061 109.215 154.168 109.215H158.479C158.586 109.215 158.676 109.247 158.68 109.286L158.835 110.893C158.839 110.934 158.753 110.967 158.644 110.967Z" fill="#8A867E"/>
<path fill-rule="evenodd" clip-rule="evenodd" d="M164.423 110.967H160.035C159.926 110.967 159.834 110.934 159.83 110.893L159.659 109.286C159.655 109.247 159.739 109.215 159.846 109.215H164.157C164.265 109.215 164.356 109.247 164.362 109.286L164.609 110.893C164.615 110.934 164.532 110.967 164.423 110.967Z" fill="#8A867E"/>
<path fill-rule="evenodd" clip-rule="evenodd" d="M170.191 110.967H165.804C165.694 110.967 165.6 110.934 165.594 110.893L165.331 109.286C165.325 109.247 165.407 109.215 165.514 109.215H169.825C169.932 109.215 170.026 109.247 170.034 109.286L170.373 110.893C170.382 110.934 170.3 110.967 170.191 110.967Z" fill="#8A867E"/>
<path fill-rule="evenodd" clip-rule="evenodd" d="M175.899 110.967H171.512C171.403 110.967 171.307 110.934 171.298 110.893L170.944 109.286C170.935 109.247 171.015 109.215 171.123 109.215H175.433C175.541 109.215 175.636 109.247 175.647 109.286L176.077 110.893C176.088 110.934 176.008 110.967 175.899 110.967Z" fill="#8A867E"/>
<path fill-rule="evenodd" clip-rule="evenodd" d="M181.385 110.967H176.998C176.889 110.967 176.791 110.934 176.78 110.893L176.339 109.286C176.328 109.247 176.406 109.215 176.514 109.215H180.824C180.932 109.215 181.029 109.247 181.042 109.286L181.56 110.893C181.573 110.934 181.495 110.967 181.385 110.967Z" fill="#8A867E"/>
<path fill-rule="evenodd" clip-rule="evenodd" d="M189.608 110.967H183.047C182.743 110.967 182.467 110.875 182.43 110.762L181.983 109.413C181.946 109.304 182.159 109.215 182.457 109.215H188.904C189.202 109.215 189.48 109.304 189.525 109.413L190.074 110.762C190.12 110.875 189.912 110.967 189.608 110.967Z" fill="#8A867E"/>
<path fill-rule="evenodd" clip-rule="evenodd" d="M114.853 113.075H108.154C107.845 113.075 107.632 112.98 107.68 112.862L108.249 111.457C108.295 111.342 108.579 111.25 108.883 111.25H115.463C115.767 111.25 115.984 111.342 115.947 111.457L115.485 112.862C115.446 112.98 115.163 113.075 114.853 113.075Z" fill="#8A867E"/>
<path fill-rule="evenodd" clip-rule="evenodd" d="M132.338 84.2274H166.796V42.5454H132.338V84.2274Z" fill="black"/>
<path fill-rule="evenodd" clip-rule="evenodd" d="M131.453 72.0576H168.15C169.185 72.0576 170.024 71.2089 170.024 70.1627V69.4496L150.322 56.4209L129.579 69.5973V70.1627C129.579 71.2089 130.418 72.0576 131.453 72.0576Z" fill="#C69560"/>
<path fill-rule="evenodd" clip-rule="evenodd" d="M133.021 84.8959H166.127V43.2139H133.021V84.8959Z" fill="white"/>
<path fill-rule="evenodd" clip-rule="evenodd" d="M137.869 53.3351H161.732V53.0151H137.869V53.3351Z" fill="black"/>
<path fill-rule="evenodd" clip-rule="evenodd" d="M137.869 55.3566H161.732V55.0366H137.869V55.3566Z" fill="black"/>
<path fill-rule="evenodd" clip-rule="evenodd" d="M137.869 57.3786H161.732V57.0586H137.869V57.3786Z" fill="black"/>
<path fill-rule="evenodd" clip-rule="evenodd" d="M137.869 59.3996H161.732V59.0796H137.869V59.3996Z" fill="black"/>
<path fill-rule="evenodd" clip-rule="evenodd" d="M137.869 61.4216H161.732V61.1016H137.869V61.4216Z" fill="black"/>
<path fill-rule="evenodd" clip-rule="evenodd" d="M137.869 63.4431H161.732V63.123H137.869V63.4431Z" fill="black"/>
<path fill-rule="evenodd" clip-rule="evenodd" d="M137.869 65.4645H161.732V65.1445H137.869V65.4645Z" fill="black"/>
<path fill-rule="evenodd" clip-rule="evenodd" d="M137.869 67.486H161.732V67.166H137.869V67.486Z" fill="black"/>
<path fill-rule="evenodd" clip-rule="evenodd" d="M137.869 69.5075H161.732V69.1875H137.869V69.5075Z" fill="black"/>
<path fill-rule="evenodd" clip-rule="evenodd" d="M137.869 71.5295H161.732V71.2095H137.869V71.5295Z" fill="black"/>
<path fill-rule="evenodd" clip-rule="evenodd" d="M137.869 73.551H161.732V73.231H137.869V73.551Z" fill="black"/>
<path fill-rule="evenodd" clip-rule="evenodd" d="M137.869 75.5725H161.732V75.2524H137.869V75.5725Z" fill="black"/>
<path fill-rule="evenodd" clip-rule="evenodd" d="M137.831 50.5772H138.4V47.5752H137.831V50.5772Z" fill="#BD8868"/>
<path fill-rule="evenodd" clip-rule="evenodd" d="M139.668 47.5752L141.2 49.6293V47.5752H141.752V50.5772H141.213L139.685 48.5272V50.5772H139.129V47.5752H139.668Z" fill="#BD8868"/>
<path fill-rule="evenodd" clip-rule="evenodd" d="M142.736 47.5752L143.61 49.9377L144.493 47.5752H145.079L143.89 50.5772H143.3L142.124 47.5752H142.736Z" fill="#BD8868"/>
<path fill-rule="evenodd" clip-rule="evenodd" d="M145.455 50.5772H146.024V47.5752H145.455V50.5772Z" fill="#BD8868"/>
<path fill-rule="evenodd" clip-rule="evenodd" d="M148.847 47.5752V48.0852H147.921V50.5772H147.348V48.0852H146.423V47.5752H148.847Z" fill="#BD8868"/>
<path fill-rule="evenodd" clip-rule="evenodd" d="M150.683 49.4489L150.165 48.188L149.639 49.4489H150.683ZM150.887 49.9423H149.435L149.172 50.5767H148.582L149.885 47.5752H150.475L151.761 50.5767H151.15L150.887 49.9423Z" fill="#BD8868"/>
<path fill-rule="evenodd" clip-rule="evenodd" d="M153.917 47.5752V48.0852H152.991V50.5772H152.418V48.0852H151.493V47.5752H153.917Z" fill="#BD8868"/>
<path fill-rule="evenodd" clip-rule="evenodd" d="M154.318 50.5772H154.887V47.5752H154.318V50.5772Z" fill="#BD8868"/>
<path fill-rule="evenodd" clip-rule="evenodd" d="M155.965 49.076C155.965 49.6425 156.428 50.0885 156.975 50.0885C157.519 50.0885 157.969 49.6425 157.969 49.076C157.969 48.5101 157.519 48.0727 156.975 48.0727C156.424 48.0727 155.965 48.5101 155.965 49.076ZM158.55 49.076C158.55 49.9383 157.863 50.6035 156.967 50.6035C156.071 50.6035 155.384 49.9383 155.384 49.076C155.384 48.2097 156.071 47.5576 156.967 47.5576C157.863 47.5576 158.55 48.2138 158.55 49.076Z" fill="#BD8868"/>
<path fill-rule="evenodd" clip-rule="evenodd" d="M159.588 47.5752L161.121 49.6293V47.5752H161.672V50.5772H161.133L159.605 48.5272V50.5772H159.049V47.5752H159.588Z" fill="#BD8868"/>
<path fill-rule="evenodd" clip-rule="evenodd" d="M131.453 93.2661H168.15C169.185 93.2661 170.024 92.4174 170.024 91.3712V90.8058L150.322 77.6294L129.579 90.8058V91.3712C129.579 92.4174 130.418 93.2661 131.453 93.2661Z" fill="#FABD68"/>
<path fill-rule="evenodd" clip-rule="evenodd" d="M129.579 69.4492L146.161 80.2726L129.579 90.8058V69.4492Z" fill="#E5AA63"/>
<path fill-rule="evenodd" clip-rule="evenodd" d="M170.024 69.4492L153.442 80.2726L170.024 90.8058V69.4492Z" fill="#E5AA63"/>
<path fill-rule="evenodd" clip-rule="evenodd" d="M213.906 45.9558L187.44 59.2904L179.971 44.4303L206.437 31.0957L213.906 45.9558Z" fill="#EA8165"/>
<path fill-rule="evenodd" clip-rule="evenodd" d="M193.757 39.3369L187.439 59.2905L213.906 45.9558L193.757 39.3369Z" fill="#DD7766"/>
<path fill-rule="evenodd" clip-rule="evenodd" d="M206.059 31.2866L179.971 44.4307L197.607 46.9943L206.059 31.2866Z" fill="#FA8C66"/>
<path fill-rule="evenodd" clip-rule="evenodd" d="M97.5218 63.3295L122.693 47.6817L113.928 33.5488L88.7568 49.1966L97.5218 63.3295Z" fill="#8E634C"/>
<path fill-rule="evenodd" clip-rule="evenodd" d="M102.394 42.667L122.693 47.6818L97.5215 63.3296L102.394 42.667Z" fill="#976B4E"/>
<path fill-rule="evenodd" clip-rule="evenodd" d="M89.1172 48.9728L113.929 33.5488L89.1172 48.9728Z" fill="#070707"/>
<path fill-rule="evenodd" clip-rule="evenodd" d="M89.1172 48.9728L113.929 33.5488L106.911 49.95L89.1172 48.9728Z" fill="#AD7B60"/>
<path fill-rule="evenodd" clip-rule="evenodd" d="M0 155.373H299.571V148.08H0V155.373Z" fill="#916645"/>
<path fill-rule="evenodd" clip-rule="evenodd" d="M45.278 130.004H40.8369L45.954 82.1626H50.3946L45.278 130.004Z" fill="#FAFAFA"/>
<path fill-rule="evenodd" clip-rule="evenodd" d="M59.4971 99.4198V63.123L50.3949 82.1624L45.2783 130.004L59.4971 99.4198Z" fill="#6789A5"/>
<path fill-rule="evenodd" clip-rule="evenodd" d="M55.0562 63.123L45.954 82.1619L40.8369 130.004H40.1025L45.276 82.1619L54.3807 63.123H55.0562Z" fill="#6789A5"/>
<path fill-rule="evenodd" clip-rule="evenodd" d="M269.985 118.404H219.982L206.919 103.421H252.739L269.985 118.404Z" fill="#CE8D45"/>
<path fill-rule="evenodd" clip-rule="evenodd" d="M219.981 123.077H269.985V118.404H219.981V123.077Z" fill="white"/>
<path fill-rule="evenodd" clip-rule="evenodd" d="M219.981 118.986H269.985V118.404H219.981V118.986Z" fill="#BD8868"/>
<path fill-rule="evenodd" clip-rule="evenodd" d="M219.981 123.077H269.985V122.495H219.981V123.077Z" fill="#BD8868"/>
<path fill-rule="evenodd" clip-rule="evenodd" d="M219.981 123.077L206.918 108.095V103.421L219.981 118.404V123.077Z" fill="#D8D8D8"/>
<path fill-rule="evenodd" clip-rule="evenodd" d="M219.981 123.077L206.918 108.094V107.512L219.981 122.495V123.077Z" fill="#A8755A"/>
<path fill-rule="evenodd" clip-rule="evenodd" d="M219.981 118.986L206.918 104.003V103.421L219.981 118.404V118.986Z" fill="#A8755A"/>
<path fill-rule="evenodd" clip-rule="evenodd" d="M271.922 112.667H221.919L208.855 97.6846H254.676L271.922 112.667Z" fill="#835AA0"/>
<path fill-rule="evenodd" clip-rule="evenodd" d="M221.918 117.34H271.921V112.667H221.918V117.34Z" fill="white"/>
<path fill-rule="evenodd" clip-rule="evenodd" d="M221.918 113.25H271.921V112.667H221.918V113.25Z" fill="#65467F"/>
<path fill-rule="evenodd" clip-rule="evenodd" d="M221.918 117.34H271.921V116.758H221.918V117.34Z" fill="#65467F"/>
<path fill-rule="evenodd" clip-rule="evenodd" d="M221.919 117.34L208.855 102.358V97.6846L221.919 112.667V117.34Z" fill="#D8D8D8"/>
<path fill-rule="evenodd" clip-rule="evenodd" d="M221.919 117.34L208.855 102.357V101.775L221.919 116.758V117.34Z" fill="#65467F"/>
<path fill-rule="evenodd" clip-rule="evenodd" d="M221.919 113.249L208.855 98.2666V97.6846L221.919 112.667V113.249Z" fill="#65467F"/>
<path fill-rule="evenodd" clip-rule="evenodd" d="M45.9541 82.1624H50.3952L59.4974 63.1235H55.0563L45.9541 82.1624Z" fill="#CCCCCC"/>
<path fill-rule="evenodd" clip-rule="evenodd" d="M52.6309 130.004H55.6726V82.1626H52.6309V130.004Z" fill="#FAFAFA"/>
<path fill-rule="evenodd" clip-rule="evenodd" d="M64.0562 99.4198V63.123L55.6729 82.1624V130.004L64.0562 99.4198Z" fill="#95B55D"/>
<path fill-rule="evenodd" clip-rule="evenodd" d="M61.0148 63.123L52.6314 82.1619V130.004H51.8965L51.9534 82.1619L60.3393 63.123H61.0148Z" fill="#95B55D"/>
<path fill-rule="evenodd" clip-rule="evenodd" d="M52.6309 82.1624H55.6726L64.0565 63.1235H61.0142L52.6309 82.1624Z" fill="#CCCCCC"/>
<path fill-rule="evenodd" clip-rule="evenodd" d="M57.1895 130.004H63.7291V82.1626H57.1895V130.004Z" fill="#FAFAFA"/>
<path fill-rule="evenodd" clip-rule="evenodd" d="M72.1129 99.4198V63.123L63.7295 82.1624V130.004L72.1129 99.4198Z" fill="#F46765"/>
<path fill-rule="evenodd" clip-rule="evenodd" d="M65.5734 63.123L57.19 82.1619V130.004H56.4551L56.512 82.1619L64.8979 63.123H65.5734Z" fill="#F46765"/>
<path fill-rule="evenodd" clip-rule="evenodd" d="M57.1904 82.1624H63.73L72.1134 63.1235H65.5738L57.1904 82.1624Z" fill="#CCCCCC"/>
<path fill-rule="evenodd" clip-rule="evenodd" d="M72.9576 82.1624H66.418L74.8019 63.1235H81.341L72.9576 82.1624Z" fill="#CCCCCC"/>
<path fill-rule="evenodd" clip-rule="evenodd" d="M66.418 130.004H72.9576V82.1626H66.418V130.004Z" fill="#FAFAFA"/>
<path fill-rule="evenodd" clip-rule="evenodd" d="M81.3414 99.4198V63.123L72.958 82.1624V130.004L81.3414 99.4198Z" fill="#C6BC61"/>
<path fill-rule="evenodd" clip-rule="evenodd" d="M74.8019 63.123L66.4185 82.1619V130.004H65.6836L65.7405 82.1619L74.1264 63.123H74.8019Z" fill="#C6BC61"/>
</g>
</svg>
