<svg width="159" height="202" viewBox="0 0 159 202" fill="none" xmlns="http://www.w3.org/2000/svg">
<path fill-rule="evenodd" clip-rule="evenodd" d="M39.6198 177.52C39.5298 177.8 35.8798 184.18 36.2398 186.99C37.8598 188.44 41.0498 188.21 42.2798 188.91C43.5098 189.61 54.6098 194.57 57.6998 193.33C58.7598 189.99 60.5198 189.01 50.1698 184.67C47.8498 182.16 48.5198 180.49 48.5198 180.49L39.6198 177.52Z" fill="#6B848C"/>
<path fill-rule="evenodd" clip-rule="evenodd" d="M57.6598 193.35C48.2898 189.88 45.0798 184.37 43.3798 178.78L39.6198 177.52C39.5298 177.8 35.8798 184.18 36.2398 186.99C37.8598 188.44 41.0498 188.21 42.2798 188.91C43.4998 189.62 54.5198 194.54 57.6598 193.35Z" fill="#7D959E"/>
<path fill-rule="evenodd" clip-rule="evenodd" d="M23.4992 190.77C23.4992 191.11 22.0392 197.28 23.3892 200.2C25.6292 201.21 28.9992 199.86 30.5692 200.2C32.1392 200.54 45.8292 202.09 48.7492 199.69C48.7492 195.72 50.3192 194.05 37.6392 192.92C34.2692 191 33.6592 188.96 33.6592 188.96L23.4992 190.77Z" fill="#7D959E"/>
<path fill-rule="evenodd" clip-rule="evenodd" d="M43.5697 42.1001L48.4597 45.8401L51.0097 50.9501L45.3497 47.3901L41.6797 44.9101L43.5697 42.1001Z" fill="#526D51"/>
<path fill-rule="evenodd" clip-rule="evenodd" d="M36.9992 35.71L34.4492 41.18L43.2292 48.49L46.3092 39.88L36.9992 35.71Z" fill="#72401E"/>
<path fill-rule="evenodd" clip-rule="evenodd" d="M54.09 12.5597C57.73 17.4997 58.59 21.3897 57.57 26.1897C58.41 28.2697 60.35 30.7397 60.35 30.7397C60.35 30.7397 59.62 32.0497 57.22 32.3397C56.42 34.5197 56.15 34.9197 56.15 34.9197L51.04 33.5097C51.04 33.5097 51.21 36.4997 54.36 38.2097C53.63 40.5397 52.3 43.2797 47.26 42.2297C41.68 41.0697 36.64 38.5897 34.75 36.4097C32.86 34.2297 28.5 20.4097 28.5 20.4097L32.28 11.5397L41.73 7.46973L54.09 12.5597Z" fill="#834C27"/>
<path fill-rule="evenodd" clip-rule="evenodd" d="M50.7793 88.9102L64.6593 85.7202L67.6093 101.87L53.9693 104.89L50.7793 88.9102Z" fill="#D85656"/>
<path fill-rule="evenodd" clip-rule="evenodd" d="M55.8896 86.06L65.5396 83.79L68.2796 98.86L67.6096 101.87L64.6596 85.72L56.0596 87.69L55.8896 86.06Z" fill="#F46765"/>
<path fill-rule="evenodd" clip-rule="evenodd" d="M28.4492 189.88L23.4992 190.77C23.4992 191.11 22.0392 197.28 23.3892 200.2C25.6292 201.21 28.9992 199.86 30.5692 200.2C32.1392 200.54 45.8292 202.09 48.7492 199.68C48.7492 199.49 48.7492 199.3 48.7592 199.12C36.1792 199.9 31.5192 194.87 28.4492 189.88Z" fill="#96ABB4"/>
<path fill-rule="evenodd" clip-rule="evenodd" d="M32.3292 6.12996C32.9392 3.57996 35.2492 3.56996 35.8592 3.80996C36.2292 2.09996 38.4192 2.09996 38.9092 2.95996C40.0092 1.37996 42.4392 1.24996 43.0492 2.22996C44.5092 0.279956 48.7792 0.519956 48.8992 3.80996C50.3592 3.43996 51.2192 3.77996 51.2192 4.52996C52.4392 4.17996 53.8992 5.14996 53.7792 6.00996C55.7292 4.78996 57.6792 6.61996 58.8992 5.27996C60.1192 3.93996 61.0892 3.69996 61.8192 6.49996C62.5492 9.29996 60.3392 9.66996 60.3392 9.66996C60.3392 9.66996 61.9392 16.74 54.0192 14.54C53.5292 15.76 51.4592 17.34 49.2692 15.51C47.9292 16.36 46.7592 17.17 44.4192 16.34C43.4192 25.75 41.8392 26.36 41.8392 26.36C41.8392 26.36 40.7392 21 38.2992 22.1C35.8592 23.2 36.4692 29.05 39.1492 29.9C38.0492 34.29 35.9692 37.59 35.9692 37.59C32.6992 36.48 24.8992 31.6 24.6492 24.05C23.3092 22.34 23.4292 19.66 24.8892 18.44C24.0392 16.73 23.7892 14.3 25.4992 14.05C25.7392 11.73 27.2092 9.77996 29.1592 10.64C27.8192 6.49996 32.3292 6.12996 32.3292 6.12996Z" fill="#010101"/>
<path fill-rule="evenodd" clip-rule="evenodd" d="M45.5293 86.5098L59.4093 83.3198L62.3593 99.4698L48.7193 102.49L45.5293 86.5098Z" fill="#966A4D"/>
<path fill-rule="evenodd" clip-rule="evenodd" d="M50.6396 83.6601L60.2896 81.3901L63.0296 96.4601L62.3596 99.4701L59.4096 83.3201L50.8096 85.3001L50.6396 83.6601Z" fill="#AF8168"/>
<path fill-rule="evenodd" clip-rule="evenodd" d="M50.4792 98.6299C55.2892 113.66 61.9692 132.12 58.6292 142.97C54.6792 155.82 48.5092 180.49 48.5092 180.49C44.4792 180.91 40.4892 179.22 39.6192 177.52C42.7792 165.21 48.0892 141.24 47.0292 136.99C45.9692 132.74 36.1992 108.57 36.1992 108.57L50.4792 98.6299Z" fill="#CD9154"/>
<path fill-rule="evenodd" clip-rule="evenodd" d="M28.4996 47.6499C21.5596 49.3799 16.0196 50.7199 13.1296 57.0299C10.2396 63.3399 -0.730417 89.3299 0.0395832 91.7299C0.809583 94.1299 6.48958 102.03 12.8396 102.42C19.1896 102.81 28.4996 101.47 28.4996 101.47L33.5396 63.6299L28.4996 47.6499Z" fill="#5F7783"/>
<path fill-rule="evenodd" clip-rule="evenodd" d="M26.35 103.53C26.35 103.53 29.24 138.61 28.41 148.11C27.58 157.6 23.5 181.28 23.5 190.78C29.45 191.77 33.4 189.49 33.4 189.49C37.32 173.39 44.72 122.73 44.72 103.54C44.72 84.3498 26.35 103.53 26.35 103.53Z" fill="#E9AE61"/>
<path fill-rule="evenodd" clip-rule="evenodd" d="M13.1296 57.0299C10.2396 63.3399 -0.730417 89.3299 0.0395832 91.7399C0.759583 93.9799 5.73958 100.99 11.5496 102.24C12.6796 98.5699 13.8896 93.9299 15.1696 88.1099C20.1196 65.5099 19.1596 57.0099 16.9196 52.1299C15.3896 53.3299 14.1096 54.8899 13.1296 57.0299Z" fill="#96AAB5"/>
<path fill-rule="evenodd" clip-rule="evenodd" d="M33.1096 42.1001L26.7496 48.4901C26.7496 48.4901 22.6096 54.2001 22.7496 67.6601C22.8996 81.1201 24.6696 110.87 24.6696 110.87C30.9196 114.27 52.9296 113.98 56.4796 107.02C55.4396 92.6701 50.7796 55.3401 50.7796 55.3401C49.5996 47.7101 45.2096 47.1201 45.2096 47.1201L42.8396 49.2401L40.8596 44.8701L33.1096 42.1001Z" fill="#5A7F5B"/>
<path fill-rule="evenodd" clip-rule="evenodd" d="M5.7391 66.3398C7.3791 68.0098 13.5691 70.5098 14.8091 70.6598C13.1891 76.7898 9.3191 84.8398 9.3191 84.8398C9.3191 84.8398 1.8891 84.0398 0.579102 79.9998L5.7391 66.3398Z" fill="#5F7783"/>
<path fill-rule="evenodd" clip-rule="evenodd" d="M25.9899 49.8101C25.9899 49.8101 32.8999 46.5001 37.6699 50.4301C43.6399 55.3501 43.4499 62.8601 30.9199 84.8201C22.9599 97.3601 22.9599 97.3601 22.9599 97.3601C21.2599 94.5701 20.1499 94.8401 25.4399 86.5301C32.9599 74.7001 38.9799 62.1801 36.8099 55.8301C34.6399 49.4801 28.4299 51.4501 24.8399 52.5801C24.8099 52.6801 25.9899 49.8101 25.9899 49.8101Z" fill="#213138"/>
<path fill-rule="evenodd" clip-rule="evenodd" d="M29.2599 53.2501C31.8399 50.6701 36.7399 51.3901 39.1299 54.5101C43.1199 59.7301 50.4899 72.9401 50.4899 72.9401L44.5999 84.7801C35.0299 75.5901 32.6299 73.8901 28.4999 65.8901C23.4999 56.1801 29.2599 53.2501 29.2599 53.2501Z" fill="#698868"/>
<path fill-rule="evenodd" clip-rule="evenodd" d="M61.9694 63.2698C61.8494 62.8998 66.9294 58.6798 66.9294 58.6798C66.9294 58.6798 73.1794 56.7998 75.0194 56.6798C76.8594 56.5598 76.6194 57.6598 72.1994 59.3198C67.7794 60.9798 71.8294 61.2198 73.0594 61.2198C74.2894 61.2198 78.8294 60.6098 78.8294 60.6098C78.8294 60.6098 80.1494 61.3298 80.0294 62.1898C79.8294 63.6798 76.0894 67.1898 73.9194 67.8498C71.6894 68.5298 64.2294 67.8498 64.2294 67.8498C64.2294 67.8498 55.9794 79.5598 52.0794 82.4598C50.0294 83.9798 45.0794 86.4398 43.3194 81.9598C41.4894 77.3098 48.4894 73.1898 53.3894 69.7098C58.8694 65.7898 61.9694 63.2698 61.9694 63.2698Z" fill="#834C27"/>
<path fill-rule="evenodd" clip-rule="evenodd" d="M125.59 183.61C125.73 184.03 127.51 191.65 127.51 191.65L130.83 195.46L136.34 192.96L134.67 185.83L125.59 183.61Z" fill="#EFD7BA"/>
<path fill-rule="evenodd" clip-rule="evenodd" d="M142.129 180.15C141.409 180.15 145.049 185.88 146.599 191.59C146.279 193.19 148.009 191.41 148.009 191.41L154.229 192.12C154.229 192.12 153.579 182.95 149.869 178.94C147.179 176.03 142.129 180.15 142.129 180.15Z" fill="#EFD7BA"/>
<path fill-rule="evenodd" clip-rule="evenodd" d="M127.94 89.8501C127.94 89.8501 130.91 94.8901 131.32 103.7C131.93 116.87 126.47 127.49 126.99 136.88C127.68 149.34 134.79 186.46 134.79 186.46C131.13 188.85 125.91 187.34 125.91 187.34C122.41 173.36 114.89 151.65 113.35 136.73C111.81 121.81 114.63 89.8501 114.63 89.8501H127.94V89.8501Z" fill="#3A4C56"/>
<path fill-rule="evenodd" clip-rule="evenodd" d="M126.759 190.43C129.159 190.34 131.339 192.2 131.339 192.2C133.419 191.93 136.429 191.81 135.369 188.64C136.079 187.59 137.059 189.1 137.589 191.14C138.119 193.18 138.919 197.62 138.919 197.62H116.119C116.919 195.93 119.049 194.98 121.799 194.66C124.719 193.09 126.759 190.43 126.759 190.43Z" fill="#966A4E"/>
<rect x="116.109" y="197.61" width="22.8" height="1.43" fill="#3A4C56"/>
<path fill-rule="evenodd" clip-rule="evenodd" d="M107.869 92.3701C105.619 107.8 103.559 127.72 106.469 140.9C108.319 149.26 124.439 156.24 143.909 184.55C148.079 184.55 151.879 182.62 151.419 179.81C133.709 145.51 121.909 143.58 120.239 138.46C120.239 138.46 122.959 129.23 125.839 123.73C129.149 117.4 134.359 106.77 132.819 97.8701C131.679 91.3201 130.079 84.8301 130.079 84.8301L107.869 92.3701Z" fill="#4F5962"/>
<path fill-rule="evenodd" clip-rule="evenodd" d="M133.86 9.59985C137.96 5.63985 150.52 3.72985 146.7 18.8898C142.88 34.0498 143.01 41.1698 148.75 41.8398C148.75 41.8398 139.1 45.0998 135.78 34.8698C131.84 22.7498 136.45 16.4398 136.45 16.4398L131.84 14.3898L133.86 9.59985Z" fill="#232323"/>
<path fill-rule="evenodd" clip-rule="evenodd" d="M144.61 188.14C146.96 187.66 149.41 189.15 149.41 189.15C151.42 188.55 154.36 187.94 152.8 184.98C153.33 183.83 154.54 185.16 155.4 187.08C156.26 189.01 157.77 193.25 157.77 193.25L135.27 196.96C135.78 195.17 137.73 193.88 140.39 193.11C143.03 191.1 144.61 188.14 144.61 188.14Z" fill="#966A4E"/>
<rect x="135.275" y="196.957" width="22.8002" height="1.43001" transform="rotate(-9.35777 135.275 196.957)" fill="#3A4C56"/>
<path fill-rule="evenodd" clip-rule="evenodd" d="M128.949 43.7298L119.929 44.9598L118.079 35.0898L127.869 30.0698L128.949 43.7298Z" fill="#E5C7A4"/>
<path fill-rule="evenodd" clip-rule="evenodd" d="M110.74 13.92C108.32 15.38 108.81 22.27 108.91 24.42C108.54 25.58 106.41 28.52 106.22 29.04C107.4 30.08 109.09 30.67 109.09 30.67C109.68 33.85 113.72 39.04 115.69 39.06C119.93 39.11 126.72 35.77 129.34 26.91C130.91 21.6 134.37 17.92 134.37 17.92L130.46 9.72004L123.53 6.79004L110.74 13.92Z" fill="#EFD7BA"/>
<path fill-rule="evenodd" clip-rule="evenodd" d="M128.899 40.2598C121.749 42.6698 119.719 43.3998 116.799 45.2298C111.829 51.6898 105.159 56.7198 107.709 68.9598C107.709 68.9598 108.409 85.1698 105.609 97.3498C110.089 99.2898 128.319 99.8698 134.369 97.3498C128.259 77.9798 134.719 57.6898 133.629 53.2098C132.539 48.7398 128.899 40.2598 128.899 40.2598Z" fill="#FABD68"/>
<path fill-rule="evenodd" clip-rule="evenodd" d="M105.09 52.3496L109.68 55.6796L107.64 86.7696L102.54 82.3196L105.09 52.3496Z" fill="#9EBD9F"/>
<path fill-rule="evenodd" clip-rule="evenodd" d="M113.36 55.1597L109.68 55.6797L107.64 86.7697H110.92L113.36 55.1597Z" fill="#86A586"/>
<path fill-rule="evenodd" clip-rule="evenodd" d="M109.35 52.0898L113.36 55.1598L112.28 55.3098L108.26 52.2098L109.35 52.0898Z" fill="#9EBD9F"/>
<path fill-rule="evenodd" clip-rule="evenodd" d="M105.89 52.9396L108.79 52.6196L112.28 55.3096L109.68 55.6796L105.89 52.9396Z" fill="#DDDDDD"/>
<path fill-rule="evenodd" clip-rule="evenodd" d="M121.18 5.02003C115.35 4.68003 106.62 11.65 107.27 15.51C107.91 19.37 120.81 29.03 125.13 23.26C125.28 21.06 131.06 21.06 128.13 27.91C127.45 29.26 126.01 29.37 126.01 29.37C126.21 30.79 126.33 31.82 126.58 32.75C126.85 33.78 127.28 34.7 128.15 35.92C132.38 31.76 139.69 27.42 137.08 16.32C133.64 1.72003 121.18 5.02003 121.18 5.02003Z" fill="#2D2D2D"/>
<path fill-rule="evenodd" clip-rule="evenodd" d="M102.099 56.1997L106.119 59.1197L104.339 86.3997L99.8594 82.4997L102.099 56.1997Z" fill="#F46765"/>
<path fill-rule="evenodd" clip-rule="evenodd" d="M109.35 58.6602L106.12 59.1202L104.34 86.4002H107.21L109.35 58.6602Z" fill="#D85656"/>
<path fill-rule="evenodd" clip-rule="evenodd" d="M105.609 55.9399L109.349 58.6599L108.409 58.7999L104.649 56.0499L105.609 55.9399Z" fill="#F46765"/>
<path fill-rule="evenodd" clip-rule="evenodd" d="M102.8 56.7097L105.2 56.4497L108.41 58.7997L106.12 59.1197L102.8 56.7097Z" fill="#DDDDDD"/>
<path fill-rule="evenodd" clip-rule="evenodd" d="M115.85 60.5601C115.4 61.1201 105.22 72.4201 105.22 72.4201C103.21 70.6301 102.54 70.7401 102.54 70.7401C103.21 68.1701 103.77 66.2801 103.32 64.3701C102.87 62.4601 102.2 62.9101 101.75 65.2601C100.74 63.6901 101.75 62.2101 101.75 61.8901C99.0698 64.4801 95.9298 67.0501 97.6098 70.4101C98.9498 72.7601 100.07 73.0901 100.07 73.0901C101.3 76.7801 102.08 81.1701 105.66 82.5001C109.15 80.5901 121.54 65.9301 121.54 65.9301L115.85 60.5601Z" fill="#EFD7BA"/>
<path fill-rule="evenodd" clip-rule="evenodd" d="M126.34 49.6998C123.54 49.1898 119.44 52.3598 115.08 58.2998C112.42 61.9298 112.42 61.9298 112.42 61.9298C114.84 66.0498 118.87 69.5398 120.98 69.5498C127.56 63.3798 130.56 59.1398 130.71 55.3898C130.86 51.2798 126.34 49.6998 126.34 49.6998Z" fill="#F4AE5B"/>
<path fill-rule="evenodd" clip-rule="evenodd" d="M45.3499 47.39L33.7499 39.52L30.9199 42.95L44.4199 54.72L45.2699 48.96L46.6099 50.95L45.3499 47.39Z" fill="#698868"/>
<path fill-rule="evenodd" clip-rule="evenodd" d="M46.6097 50.95L48.4597 45.84L45.0997 43.27L43.9297 46.52L46.6097 50.95Z" fill="#698868"/>
<path fill-rule="evenodd" clip-rule="evenodd" d="M45.2695 48.9601L45.3495 47.3901L46.6095 50.9501L45.2695 48.9601Z" fill="#526D51"/>
<path fill-rule="evenodd" clip-rule="evenodd" d="M107.1 25.25C107.18 26.1 107.67 26.71 108.25 26.71L110.27 26.72C110.88 26.72 111.4 26.06 111.49 25.15L111.53 23.83C111.58 23.32 111.45 22.82 111.17 22.51C111.01 22.33 110.81 22.23 110.59 22.23H108.09C107.85 22.23 107.63 22.33 107.44 22.54C107.13 22.88 106.97 23.46 107.03 24.03L107.1 25.25ZM107.76 22.83C107.83 22.75 107.94 22.66 108.08 22.66H110.58C110.69 22.66 110.78 22.74 110.84 22.8C111.03 23.01 111.13 23.39 111.09 23.79L111.05 25.11C110.98 25.77 110.64 26.27 110.26 26.27H108.25C107.91 26.26 107.59 25.8 107.53 25.21L107.46 23.99C107.41 23.54 107.53 23.08 107.76 22.83Z" fill="#3A4D58"/>
<path fill-rule="evenodd" clip-rule="evenodd" d="M125.209 22.75L111.319 23.5L111.119 23.61L111.509 24.24L125.259 22.96L125.209 22.75Z" fill="#3A4D58"/>
</svg>
