<svg width="150" height="140" viewBox="0 0 150 140" fill="none" xmlns="http://www.w3.org/2000/svg">
<path fill-rule="evenodd" clip-rule="evenodd" d="M98.4206 30.1986C99.2024 31.9638 100.01 33.7877 100.806 35.722C103.343 41.8875 98.1075 42.6659 98.1075 42.6659C98.1075 42.6659 100.397 46.8653 98.1594 50.2259C95.9244 53.5865 92.2632 51.7852 92.2632 51.7852C92.2632 51.7852 91.2766 53.6133 88.0573 53.8426C83.3885 54.1741 81.3844 52.0707 81.3844 52.0707L76.3236 51.0897C75.7306 51.4931 74.1231 52.9244 70.1948 53.3998C65.5381 53.9632 62.9531 52.3059 62.9531 52.3059C62.0726 55.0329 56.1117 54.5549 54.8527 50.2359C53.6697 46.1797 55.1417 44.5191 55.323 44.3316C52.5935 46.7397 46.5972 40.2285 51.1614 34.0522C53.0187 31.5403 54.0745 30.3718 54.7255 29.1138C52.3633 29.7608 49.3689 26.5902 50.0845 23.823C51.0102 20.2515 53.7893 21.6735 55.615 16.5502C58.0412 9.74354 60.2921 7.42082 60.4238 7.28857C60.4253 7.2869 60.4268 7.28606 60.4283 7.28439C64.1353 2.71595 70.1459 -0.432075 77.2206 0.0483732C83.2349 0.457675 87.1843 4.22258 89.5766 7.00566C91.6386 9.40539 92.9247 12.4136 93.4056 15.4905C93.5064 16.1358 93.6261 16.7711 93.7638 17.3989C94.9054 19.6496 97.1585 23.6405 99.3424 24.8517C102.312 26.5031 101.376 30.8766 98.4206 30.1986Z" fill="#2D2D2D"/>
<path fill-rule="evenodd" clip-rule="evenodd" d="M105.984 56.439C108.849 61.2251 117.685 86.1073 116.952 91.0728C116.276 95.6451 94.9579 110.026 94.9579 110.026L91.0283 99.7982C91.0283 99.7982 104.041 90.5225 104.815 88.3149C105.589 86.1073 97.4839 69.3751 97.4839 69.3751L99.7348 58.325L105.984 56.439Z" fill="#5D7C5D"/>
<path fill-rule="evenodd" clip-rule="evenodd" d="M46.1503 56.439C43.2855 61.2251 34.4494 86.1073 35.1827 91.0728C35.8577 95.6451 57.1762 110.026 57.1762 110.026L61.1059 99.7982C61.1059 99.7982 48.0929 90.5225 47.3188 88.3149C46.5457 86.1073 54.6503 69.3751 54.6503 69.3751L52.3994 58.325L46.1503 56.439Z" fill="#5D7C5D"/>
<path fill-rule="evenodd" clip-rule="evenodd" d="M68.283 49.4473H76.0691H83.8552L99.7349 52.8521L93.0997 97.9885H76.0691H59.0386L52.4043 52.8521L68.283 49.4473Z" fill="#986848"/>
<path fill-rule="evenodd" clip-rule="evenodd" d="M68.2832 52.3319H83.8462V39.3735H68.2832V52.3319Z" fill="#986848"/>
<path fill-rule="evenodd" clip-rule="evenodd" d="M60.3057 22.309C60.3057 32.0131 67.3631 39.8796 76.0696 39.8796C84.776 39.8796 91.8334 32.0131 91.8334 22.309C91.8334 12.6048 84.776 4.73828 76.0696 4.73828C67.3631 4.73828 60.3057 12.6048 60.3057 22.309Z" fill="#2D2D2D"/>
<path fill-rule="evenodd" clip-rule="evenodd" d="M62.9072 26.0657C62.9072 33.1579 65.5035 39.3587 69.3776 42.7273C71.3341 44.4302 73.6257 45.4136 76.0656 45.4136C78.5054 45.4136 80.797 44.4386 82.7535 42.7273C86.6359 39.368 89.2313 33.1672 89.2313 26.0657C89.2313 26.0657 78.747 20.7489 73.1813 12.0439C73.1813 12.0439 70.422 21.2852 62.9072 26.0657Z" fill="#986848"/>
<path opacity="0.5" fill-rule="evenodd" clip-rule="evenodd" d="M82.7538 42.7275C82.7538 42.7275 82.5547 42.8521 82.2057 43.0705C81.8649 43.2945 81.3529 43.5688 80.7408 43.8643C80.1242 44.1506 79.3945 44.436 78.5964 44.6414C77.801 44.8403 76.9242 44.9658 76.0742 44.9584C75.6121 44.9575 75.2057 44.9333 74.7751 44.8775C74.352 44.8097 73.9344 44.7474 73.5353 44.6396C72.7371 44.4341 72.0075 44.1497 71.3908 43.8634C70.7788 43.5669 70.2677 43.2945 69.9251 43.0696C69.577 42.8521 69.377 42.7275 69.377 42.7275C69.377 42.7275 69.5353 42.9181 69.8408 43.2165C70.1482 43.5093 70.5955 43.9303 71.1936 44.3328C71.789 44.7381 72.5297 45.1341 73.3658 45.4166C73.7853 45.5542 74.2251 45.6769 74.6788 45.7494C75.1279 45.82 75.6195 45.86 76.0575 45.8684C77.0066 45.8572 77.926 45.7057 78.7649 45.4157C79.601 45.1322 80.3418 44.7362 80.9371 44.331C81.5353 43.9285 81.9816 43.5093 82.2908 43.2155C82.5955 42.9181 82.7538 42.7275 82.7538 42.7275Z" fill="#2D2D2D"/>
<path fill-rule="evenodd" clip-rule="evenodd" d="M87.4325 55.6772C85.2992 55.6772 76.0732 56.1633 76.0732 56.1633V139.47L94.3381 137.881C94.3381 137.881 93.8214 101.844 93.5353 97.9907C93.2501 94.1378 98.8029 68.5491 98.8029 68.5491L105.984 56.4385C103.719 53.1935 101.454 52.9175 100.277 52.3319C99.1112 51.7472 90.1047 50.1577 90.1047 50.1577C90.1047 50.1577 89.5547 55.6772 87.4325 55.6772Z" fill="#9EBEA0"/>
<path fill-rule="evenodd" clip-rule="evenodd" d="M58.5985 97.9911C58.3124 101.844 57.8069 137.88 57.8069 137.88L76.0615 139.47L76.0726 56.1628C76.0726 56.1628 66.8458 55.6776 64.7124 55.6776C62.5791 55.6776 62.0291 50.1572 62.0291 50.1572C62.0291 50.1572 53.0235 51.7467 51.8578 52.3323C50.6921 52.917 48.4152 53.193 46.1504 56.4389L53.3309 68.5487C53.3309 68.5487 58.8846 94.1383 58.5985 97.9911Z" fill="#9EBEA0"/>
<path fill-rule="evenodd" clip-rule="evenodd" d="M83.8468 45.8682C83.8468 45.8682 81.8135 69.4937 81.8135 78.049V112.547L97.3459 112.094C97.3459 112.094 96.5218 95.1001 96.6588 89.1279C96.7968 83.1548 98.8033 68.5493 98.8033 68.5493L105.984 56.4386C105.984 56.4386 104.857 51.5893 90.1051 50.1579L83.8468 45.8682Z" fill="#446644"/>
<path fill-rule="evenodd" clip-rule="evenodd" d="M81.8135 78.049V83.1548L92.1227 64.5942L87.9301 61.2833L90.6107 59.8342L90.1051 50.157L83.8468 45.8682C83.8468 45.8682 81.8135 69.4937 81.8135 78.049Z" fill="#5D7C5D"/>
<path fill-rule="evenodd" clip-rule="evenodd" d="M68.2835 45.8682C68.2835 45.8682 70.3169 69.4937 70.3169 78.049V112.547L54.7844 112.094C54.7844 112.094 55.6085 95.1001 55.4715 89.1279C55.3335 83.1548 53.327 68.5493 53.327 68.5493L46.1465 56.4386C46.1465 56.4386 47.2733 51.5893 62.0252 50.1579L68.2835 45.8682Z" fill="#446644"/>
<path fill-rule="evenodd" clip-rule="evenodd" d="M70.3171 78.049V83.1548L60.0078 64.5942L64.2004 61.2833L61.5198 59.8342L62.0254 50.157L68.2837 45.8682C68.2837 45.8682 70.3171 69.4937 70.3171 78.049Z" fill="#5D7C5D"/>
<path fill-rule="evenodd" clip-rule="evenodd" d="M0 115.594H149.71V99.7983H0V115.594Z" fill="#BEB4A5"/>
<path fill-rule="evenodd" clip-rule="evenodd" d="M105.579 60.4561H50.0325C49.2464 60.4561 48.6084 61.0965 48.6084 61.8857V98.3683C48.6084 99.1584 49.2464 99.7988 50.0325 99.7988H105.579C106.366 99.7988 107.003 99.1584 107.003 98.3683V61.8857C107.003 61.0965 106.366 60.4561 105.579 60.4561Z" fill="#D8D0BC"/>
<path fill-rule="evenodd" clip-rule="evenodd" d="M9.25293 139.47H15.4418V115.594H9.25293V139.47Z" fill="#966B4E"/>
<path fill-rule="evenodd" clip-rule="evenodd" d="M134.269 139.47H140.457V115.594H134.269V139.47Z" fill="#966B4E"/>
<path fill-rule="evenodd" clip-rule="evenodd" d="M15.4424 139.47H134.268V115.594H15.4424V139.47Z" fill="#BC8867"/>
<path fill-rule="evenodd" clip-rule="evenodd" d="M75.6002 83.964H80.0132L82.2187 80.1279L80.0132 76.2908H75.6002L73.3937 80.1279L75.6002 83.964ZM80.5483 84.8935H75.065L72.3252 80.1279L75.065 75.3613H80.5483L83.2882 80.1279L80.5483 84.8935Z" fill="#F9F8F7"/>
</svg>
